<svg xmlns="http://www.w3.org/2000/svg" viewBox="0 0 202.53 240.19"><defs><style>.cls-1{fill:#783819;}</style></defs><g id="Layer_2" data-name="Layer 2"><g id="Layer_1-2" data-name="Layer 1"><g id="Group_1" data-name="Group 1"><path class="cls-1" d="M202.51,150.28a11.61,11.61,0,0,1,0,1.18c-.36,3.83-.5,7.89-1.58,11.66-3.36,11.66-12.81,22.66-24.71,25.86-1.36.37-2.64,1-4,1.31a35.21,35.21,0,0,1-13.1.38,8.16,8.16,0,0,1-2-.24c-.1-.06-.1-.33-.24-.37s-.81.15-1.26.12a32.58,32.58,0,0,1-5.52-1.58,1.16,1.16,0,0,1-.81-1.2c-.39-.14-.69.27-1,.3a19.6,19.6,0,0,1-3.83-1.92c-.06-.13.12-.41.07-.45a3.53,3.53,0,0,1-.92,0c-.19-.05-2.32-1.46-2.61-1.68a10.44,10.44,0,0,1-.76-.73c0-.07.68-.25.45-.51s-.38.41-.52.44c-.48.11-4.11-3.27-4.58-3.84a10.36,10.36,0,0,1-.66-1c.39-.29.7-.38.58-1l-1.08.43c-.37-.06-3.32-4-3.65-4.64-.19-.34-.2-.73-.38-1.1s-.77-.84-.88-1.19,0-1-.13-1.2-.63-.15-.89-.59c-.4-.71,0-1.19-.07-1.66,0-.09-.52-.3-.72-.66a28.11,28.11,0,0,1-1.8-5.73,42.49,42.49,0,0,1-.89-9.76c.1-1.94.54-3.88.77-5.81l.56-.12c.75.4,5.27,1.14,5.55,1.56s-.69,4.45-.69,5.4a49.35,49.35,0,0,0,.8,6.77c2.05,11.71,11.75,21.64,23,25.07.95.29,2.09.29,2.85.54.29.1.47.44.68.49a15.19,15.19,0,0,0,2.64-.12c.49,0,.81.43,1.19.45s.76-.27,1.18-.3c4.94-.3,8.16-.39,12.77-2.6a34.61,34.61,0,0,0,14.32-11.84,32,32,0,0,0-13.39-47.33c-.74-.33-4.14-1.4-4.39-1.81a1.5,1.5,0,0,1-.07-.82,31.85,31.85,0,0,1,.77-4.4,1.05,1.05,0,0,1,.5-.68,36.85,36.85,0,0,1,10.63,4.71,34.46,34.46,0,0,1,11.48,11.58C199.43,137.26,202.39,143.73,202.51,150.28Zm-75.54.89c-.72,0-.94.36-.89,1C126.8,152.25,127,151.84,127,151.17Zm.89,5.92-.45.09-.14.64.52-.14Zm4.58,13.16a.37.37,0,0,0-.44-.44v.44Zm1.18,1.92-.74.74A.68.68,0,0,0,133.62,172.17Zm-1.18,1.18c-.15-.15-.59.3-.44.45S132.59,173.5,132.44,173.35Zm2.07,1.19c.08.08.44-.13.44-.22C135,173.91,134.29,174.31,134.51,174.54Zm1.92,1.77a.37.37,0,0,0-.44.45h.44Zm1.88,2c.25-.26.25-.68-.18-.7C137.11,178.23,137.57,179.13,138.31,178.34Zm1.37,1.52a.63.63,0,0,0-.74.74A.62.62,0,0,0,139.68,179.86Zm2.52.89c-.21-.21-1.34.78-1.19,1.18A1.13,1.13,0,0,0,142.2,180.75Zm3.69,3.25h-.22l-.37.59.52-.14Zm1.33,2.52a.38.38,0,0,0-.44-.45v.45Zm8.5,1c-.35.08-.21.67.15.59S156.09,187.47,155.72,187.55Zm20.31.87L176,188c-.17.19-.42.31-.36.59Zm-18.19,1.18c-.17-.42,1.49-1.14.69-1.31-.28-.06-.49.47-.68.65s-.67.11-.58.68Zm3.72-.72a.83.83,0,0,0-.89.89C160.83,189.94,161.73,189,161.56,188.88Zm10,.15c-.32.08-.21.59,0,.59S172.05,188.92,171.54,189Zm-8.2,1.18.58.09.89-.9-.5-.06Z"></path><path class="cls-1" d="M45.37,161.23a8.31,8.31,0,0,1-1.93-3c-.48-1.38-.83-4.06-.17-5.36.15-.29.56-.55.6-.74s-.12-.46-.07-.79a9.53,9.53,0,0,1,1.71-3c.58-.67,2-1.49,1.93-2.35-1.21-3.33-2.62-6.59-3.85-9.92-1-2.66-1.77-5.41-2.73-8.06-.13-.35-1.12-1.87-1.1-2,.43-.39.64-1.2,1.32-1.13l8.21,21c.55.49,2.52-.26,3.29-.41a13.3,13.3,0,0,0,2.34-.32,9.21,9.21,0,0,0,.5-2.46c.4-4.83.95-9.63,1.67-14.45.17-1.13.6-2.32.7-3.44.15-1.93-.17-4.63.29-6.48,0-.13.35-.18.48-.43.5-.92.31-4,0-5-.09-.35-.67-1.15-1-1.18-1.56.23-3.15.45-4.73.59l-11.22,1c-.86.08-3.91-.31-4.08,1a8.67,8.67,0,0,0,.28,1.64c.6,2.75,1.94,5.31,2.83,8L39.53,125c-.4-.09-1.4-4.24-1.63-4.88-.41-1.19-1-2.72-1.44-3.88-1.3-3.16-2.29-2.15-5.07-2.18a22,22,0,0,0-2.62-.18c-1.66-1.31-1.21-2.67.86-2.93a15.43,15.43,0,0,1,3,0c.49,0,1.21-.27,1.76-.29,8.84-.28,18.16.14,26.89-1.2,2.56-.39,5.24-1.34,7.82-1.13.9.07,2,1.34,1,1.86a32.65,32.65,0,0,1-4.85.77c-.83.1-1.36.09-2.25.26-.52.1-1.16-.12-1.49.43a32.23,32.23,0,0,0-1,3.26c0,.22.1.29.27.4l9.69,1.26c.36,1.78-3.21.75-4.3.6-.87-.11-1.7-.28-2.55-.4a28.62,28.62,0,0,0-3.44-.27c-.46.23-.8,2.51-.88,3.11-.75,5.3-1,10.93-1.63,16.27-.28,2.43-1.13,4.88-.52,7.32,1.67-2.25,2.68-4.91,4-7.35,3.13-5.59,6.49-11.14,9.51-16.8,1.26-2.36,2.16-5,3.5-7.3,1.52-2.61,3.25-5.14,4.64-7.78a5.68,5.68,0,0,0,.41-1.58,4.78,4.78,0,0,1-3.7-2.75c-.56-.09-.93.25-1.54.24-1.16,0-3-.74-3.43-1.91s-.36-3.79.54-4.83c.43-.51,1.45-.93,1.46-1.47,0-.85-.48-2.42-.57-3.41-.06-.66-.16-1.75-.16-2.37A10.18,10.18,0,0,0,72,84.41c-.1-.79-.91-1.13-1-1.8-.17-1.06.33-2.23.11-3.22s-1.52-.69-1.46-2.24c0-.57.61-1,.72-1.67a43,43,0,0,0,.48-6.33,121,121,0,0,1,1.34-18c.24-1.54,1-3.77,1.33-5.47,1.32-6.06,3.53-7.92,6.91-12.61.26-.36.38-.94.61-1.17s.8-.28,1-.66,0-.72.1-1.08.35-.47.41-.77c.08-.46-.16-.95-.08-1.26.25-.95,2.16-.54.74-2.35-.19-.24-.64-.28-.66-.68a.82.82,0,0,1,.08-.51c.06-.12,1-.8.44-.89-.38-.07-.95.81-1.2,1-.79.62-5.53,1.91-6.67,2.06-.3,0-1,.13-1.23,0-.83-1.59.83-2.93,1.47-4.32,1.3-2.83,2.36-4.93,3.89-7.64,2.33-4.16,4.64-9.67,7.54-13.46C87.32.6,87.61,0,88.61,0c.84,0,1,.34,1.66.57,7.17,2.62,14.24,5.57,21.23,8.64,1,.45,4.13,1.32,4.6,2.34.36.77-.89,1.71-1.5,2-1,.57-3.59,1.92-4.63,2.31a19.51,19.51,0,0,1-2.08.44,18.54,18.54,0,0,0-2.34.91,5.93,5.93,0,0,0-.15,2.34c.15,1.15,1.63,3.56,1,4.6-.27.46-1.3,1.05-1.52,1.59s0,1-.18,1.45-.82.79-1,1.18c-.11.21-.83,2-.88,2.24-.13.58.15.91-.11,1.36a3.33,3.33,0,0,1-1.09.83,7.87,7.87,0,0,1-1.2-.28c-.32,0-.65,0-1,0a11,11,0,0,0-2.1-.56,4.59,4.59,0,0,0-1.52,1.26c-.08.55,3.58,2.07,3,3.32-.16.35-1,.82-1.18,1.34-.37,1.11.63,2.07,1.08,3,1.35,2.91,2.81,7.35,4.55,9.8a68.11,68.11,0,0,0,5.53,6.45,38.64,38.64,0,0,0,2.58,2.88c1,.69,2.07-.13,3.26.74a8.41,8.41,0,0,1,2,2.9c.12.73-.45,1.24-.51,1.81-.1.79.83,1.12,1.26,1.57a29,29,0,0,0,3.4,3.25c2.39,1.81,6.92,1.18,9.9,2.07,1,.29,1,.95,2.2.15.36-.24.63-.69,1-1,1.8-1.36,7-2.9,8,0a37,37,0,0,1,.79,4.09c.27,2.41-.51,5.72-1.05,8.09-.14.65-.94.94-.86,2.1l2.3,5.25c.28.31.65-.05,1,0s.87.54,1.51.58,1.79-.36,2.34-.29.58.93,1.32.43-.09-1.74-.19-2.58c-.12-1.06,0-2.29,0-3.37.14-.42,1.65-.24,2-.18.36,1.13.89,2.64-.15,3.56.2.3.73.29.86.62a25.57,25.57,0,0,1,.45,3.24c0,.31-.17.66-.14,1,0,.58.47,2.56.24,2.9s-1.79-.16-1.93-.45c-.05-.1-.33-1.84-.37-2.16s.13-.49.11-.71a4.43,4.43,0,0,0-.55-1.06c-.6-.36-2.59.13-3.33.22-.38,0-1.3-.12-1.49.14-.11,2,1.19,3.46,2,5.14,1.4,3,2.85,5.91,4.28,8.87.28.57,1.37,3.42,1.58,3.61.39.35,2.56-.27,3.24-.31s1.34.18,1.78.15.58-.34.88-.37c1.16-.11,2.82.23,4,.24s2.33-.21,3.57-.17c1.06,0,5.8.89,6.35.31.18-.18.29-1.14.73-1,.56.3,0,1.22.48,1.48s3.19.6,4,.81c2.47.63,4.9,1.47,7.39,2.07,1.43.56-.91,2.09-1.52,2.33-1.22.46-1.69-.26-2.69-.63-1.15-.41-2.45-.8-3.63-1.11a27.14,27.14,0,0,0-3.74-.79c-.68.23-.77,3.08-.91,3.83-.73,3.88-1.49,7.38-2,11.32-.7,5.54-1.27,11.15-2.1,16.69-.06.4-.29,2.3-.65,2.3a4.26,4.26,0,0,1-.51-1.57,41.13,41.13,0,0,1,.59-6.78c1-8.06,2-16.22,3.43-24.22.12-.69,1.06-1.45.22-1.92a22.39,22.39,0,0,0-4-.71c-1.54,0-.7,1.37-.65,2.29.21,4.1-.38,8.33-.29,12.3.08,3.26.17,5.53,0,8.86-.13,2.3.43,4.18,0,6.52,0,.15.09,1.52-.31,1.1-.14-1.23-.93-2.24-1-3.47-.26-3,.16-6.52.16-9.62,0-5.11.26-10.34.28-15.54,0-.78.46-1.94-.48-2.46-.72-.4-2.84-.33-3.72-.27a5.67,5.67,0,0,0-2.52.59c-.31.63.63,4.57.79,5.57.67,4.13.84,8.2,1.38,12.38.5,4,1.61,8.34,1.9,12.3,0,.45.15,1.53.12,1.89s-.58,1.11-.54,1.34,2.24,3.1,2.61,3.75c.64,1.12,2.21,3.59.42,4.36-1.36.59-1.83.09-2.84-.76a30,30,0,0,1-6.45-8,33,33,0,0,0-1.72-3.61c-1.44-2.53-2.83-8.81-3.38-11.84s-.64-6.27-.95-9.41c-.18-1.84-.78-3.75-1.11-5.57a1.82,1.82,0,0,0-.65.08,35,35,0,0,0-4.29,2.07,40.19,40.19,0,0,0-17.46,19.35c-.42,1-1.83,4.31-1.61,5.18a30.75,30.75,0,0,0,6.25,1.92c.79.21,1.56.58,2.33.77,5.78,1.46,12.37,2.3,18,4.17a7.59,7.59,0,0,1,1.51.57,20,20,0,0,1,2.07,2.13l-30.23-7.92c-.43,0-.66.57-.77.94-.59,2-.34,4.77-.85,6.84-1.87,2.4-1.64-1.48-1.54-2.72.72-9.13,5.61-19.88,12.25-26.2,2.69-2.56,7.55-6.59,10.79-8.29.62-.32,2.46-.78,2.65-1.5.09-.38-1.22-2.17-1.49-2.75-.17-.37-.31-1.65-.86-1.37-.87.81-1.6,2.28-2.44,3-.54.49-1.37.76-2,1.26-1.25,1-1.94,2.61-3,3.57-1.71,1.54-3.89,2.56-4.83,4.93.93-.18.17.81-.29.89-.13-.42.19-.62.29-.89-.42.08-1.08.56-1,1h.59c.25.18-2,2.51-2.22,2.74-3.69,4.5-7.39,8.93-11.31,13.23-.66.74-4,3.75-4.14,4.29s.1.54-.27,1.21c-.83,1.48-2.43,2.88-3.32,4.38-.16.65,1.41,2,1.87,2.64,4,5.46,4.26,12.59-.36,17.79a17.85,17.85,0,0,1-2.5,2.23c-.48.28-2,.68-2.15.81s-.2.93,0,1.2,1.37.46,1.86.65c1.6.61,2.62,2,3.92,2.88.45.3,1,.31,1.33.74a5.36,5.36,0,0,1,1.48,3.41c0,2.35-4.67,3.48-6.37,2.36l.15-.44,1.18-.22-.29-.74c1-.09,4.59-.7,4.81-1.76a5.63,5.63,0,0,0-1.52-2.06c-1-.31-1.88,1-2.56,1.51-.29.23-.91.43-1,.59a1.75,1.75,0,0,0,.16,1.87c-.82-.23-1.29.32-1.92.51a13.1,13.1,0,0,1-3.6.66,19,19,0,0,1-3.64-1.4c-.93-.64.22-1.93-1.63-2.37-.59-.15-.51.25-.85.35-.6.19-1-.42-1.52-.64s-1.12-.24-1.62-.44c-1-.4-4.06-2.15-4.59-3-.89-1.37.83-3.26,1.19-2.88a2.08,2.08,0,0,0,.11,1c.52,1.3,4.06,2.35,5.36,3.07.69.38,2.87,2.06,3.47,2,.42,0,1-1.28,1.28-1.69a13.09,13.09,0,0,1,2.06-2.37c.65-.51,1.5-.72,2-1.36,0-.19-.49-.65-.65-.8-4.11-3.91-6.52-8.07-5.84-14,.25-2.06,0-4,.13-6.07a122.2,122.2,0,0,0,.31-14.95,8.71,8.71,0,0,1-.15-1.25c-.55-.1-.78.24-1.11.59-.28-2.22,2.31-3.12,2.57-5.11.31-2.32-1-4.27-1.29-6.51-.12-1-.26-2.39-.33-3.38-.1-1.71.64-3.72-.36-5.24-.49.34-2.13,1-2.36,1.47-.13.28,0,.66-.3.88-.93-1-1.72,0-2.67.29a14.12,14.12,0,0,1-1.7.22c-.35.24.29,1.11-.38,1.24s-.75-1.11-.93-1.24c-.33-.23-1.49,0-1.92.1l-.15,1c-.83.58-1.9-.52-.6-.69.1-.73-1.15-1.27-1.27-.52-.19,1.18,1.89,4.25,2.16,5.55l1.24-.43.25.81c-.29.43-.79.23-.76,1a12.51,12.51,0,0,0,.37,1.57c.12.17.49.07.53.23,0,.67-.42,1.24-.42,1.91s.38,1.11.41,1.48-.18.58-.16.88a8.28,8.28,0,0,1,.16,2l.67-1c.93,1.34-.68,1.2-.81,1.34s-.12,2.8-.32,3.32l.46,1.1h-.59l-.15,2.52c1.11,0,.73-2.3,2.22-1.26,0,.83-1.06,1-1.32,1.5s-.11.66-.24.93-.42.32-.45.52c-.06.35.36,1.11.24,1.56.78-.52.22-1.62,1.62-1.33.12.12-.22,1.21-.33,1.3s-.57-.12-.81.44,0,1.29.11,2c.43.09.19-.27.57-.38s.65,0,.9-.07c.06-.29.11-.59.16-.88h.73c0,.57-.38.78-.89.88-.12.72,0,1.56-.88,1.7a8.34,8.34,0,0,1,1.18,3.92l.69-.27.32.19c-.22.55.09,1.15-.7,1.13l.35,1.62.82.15c0,.8-.51,1.45-.45,2.28s.77,2.18.75,3.19c.43-.08,1-.37,1.32.07-.49.83-.49,1.48-1.62,1.56.3.67-.06,1.22,0,1.92,1.53-.7,2.07-.24.64.87l-.49-.28-.43,4.22c.91,1.45-.43,1.23-.62,1.49-.91,1.22,1.35,3.09,2.17,3.74l.65-.28-.16.5.31.16c-.11.28-1,.4-1.24.38-.09,0-.08-.25-.2-.29-.93-.31-1.74-.39-2.38-1.29-.34-.48-.64-1.73-1-1.95l-2.41-.47.29-.44c-.51-.05-.44.32-1,.4A2.9,2.9,0,0,1,87.3,170c-1,.52-.67,1.14-1,1.87-1.3,3.49-6.38,9.49-9.27,11.87-7,5.78-14.49,8.2-23.51,8.58-18.91.81-35.22-14.31-38-32.77-1.8-11.76,3.62-24.94,12.48-32.59a45.34,45.34,0,0,1,8.6-5.46l.33.05a1,1,0,0,1,.33.42,36.36,36.36,0,0,1,1.24,3.65,2.2,2.2,0,0,1-1.22,2.19,27.36,27.36,0,0,0-7.66,6.09c-1.37,1.53-2.56,3.8-3.77,5.11-.43.45-1,.62-1.4,1.12s-1.24,1.94.07,1c-.45,1.53-1.24,3-1.7,4.59a32.38,32.38,0,0,0,1.52,21.84c.27.61,1,1.65,1.15,2.11s-.07.85,0,.9c.22.29,1.16.4,1.35,1.32.1.5-.54.79-.38,1.34l.69-.43c.28,0,1,1,1.05,1.26s-.42.58-.19.94.54-.09.77-.13c.45-.07,1,.72,1.21,1.12l-.43.35.22.28c.55-.65,1.43.25,1.77.75a3.6,3.6,0,0,1,.25.72c.08.07.57,0,.87.09a16.6,16.6,0,0,1,1.25,1.26,26.2,26.2,0,0,0,9.36,4.69c.77.23,2.13,0,1.95,1.08.8-.32,2.59-.33,2.67.74a2.46,2.46,0,0,1,1-.3c2-.19,4.2.11,6.21,0A29.13,29.13,0,0,0,65.28,183c1.11-.5,3-1.85,4-2.1.54-.14,1.07.14,1.41-.06s0-.66.36-1,1.5-.94,2-1.36c2.72-2.07,4.52-4.87,6.82-7.37.65-1-.1-1.48-1.1-1.47l.12-.56-.2-.33c-.37-.1-.61.42-1,.53-1.07.34-2-.26-2.9-.37-.56-.08-1.2.07-1.75,0s-.68-.5-.93-.56-.54.12-.82.09c-.6-.06-1.52-.45-2.27-.54a9.78,9.78,0,0,1-2-.12l-.42-.78a6,6,0,0,1-1.44.28c-.64,0-1.18-.51-1.66-.58s-.77.14-1.13.11c-.54,0-1.7-.53-2.45-.66-5.08-.86-10.84-.94-14.66-4.92h.22a1.28,1.28,0,0,0,.52-1.18c.77.37.67-.54.22-.44-.18.06-.18.41-.22.44C45.74,160.36,45.23,160.36,45.37,161.23ZM112.19,11.55A5.35,5.35,0,0,0,110,10.09c-6.34-3.18-13.45-5.62-20-8.38-1.7-.36-1.26,1-.16,1.35,3.07,1,5.87,2,8.88,3.24,1.81.73,3.68,1.34,5.46,2.15.26.38-1.19,1.3-.5,1.47s1.22-.57,1.25-1.18C107.47,9.27,109.6,11.37,112.19,11.55ZM87.5,5.34c-.58-.07-.8.36-.74.89C87.15,6.05,87.59,5.86,87.5,5.34ZM83.07,9.92a.89.89,0,0,0,.67-.14c.15-.08,2.07-1.86,2.14-2,.17-.3.09-.6.22-.82s.68-.21.51-.74c-.53.07-.51.57-.74.8C84.92,8,83.48,8.53,83.07,9.92Zm9.46-2.51h-.45v.44l.45-.15Zm-9,5.47c.5.43,2.14-1.44,2.52-1.84S87.62,9.29,87.8,9a.88.88,0,0,0,.14-.67,8,8,0,0,0-2.36,2c-.45.46-1.07,1.15-1.48,1.63C84,12.05,83.4,12.79,83.51,12.88ZM97.85,8.74l-.59.37v.22L97.85,9Zm3.1.59c-.15-.15-.46.14-.59.22a17.66,17.66,0,0,0-4.58,4.66.88.88,0,0,0,.67-.14c.6-.35,3.52-3.42,4.26-4.17C100.84,9.77,101.14,9.52,101,9.33ZM95.63,11c-.95-.14-.76.67-.91.86s-1.24.18-1,1.06c1,.21.74-.66.91-.86S95.92,11.88,95.63,11Zm6.5.44c-.34-.31-1.87,1.35-2.13,1.64a9.79,9.79,0,0,1-1.48,1.47A17.34,17.34,0,0,0,97,16c-1.16,1.36-.53,1.42.6.45.78-.68,1.3-1.65,2-2.31C100.48,13.32,101.75,12.75,102.13,11.4Zm6.8.15c-.26-.24-1.84,1.27-2.06,1.56-.11.13-.56.7-.45.81a2.1,2.1,0,0,0,1-.52C107.67,13.24,109.12,11.72,108.93,11.55ZM84.1,15.84c.81,0,1.09-.74,1.55-1.19.18-.17.52-.22.66-.37s.2-.56.38-.8a6.38,6.38,0,0,0,.82-1c.08-.18.19-.32-.09-.38s-.79.64-1,.81c-.57.61-1.53,1.55-2,2.15C84.3,15.32,84.07,15.53,84.1,15.84Zm20.33-3.55c-.53,0-3.44,3.51-4.15,4-.15.68.49.33.83.08a42.05,42.05,0,0,0,3.52-3.58C104.68,12.58,104.57,12.3,104.43,12.29ZM93.71,13c-.07-.07-1.13.42-1,.66C92.91,14.27,93.83,13.46,93.71,13ZM82.33,14.21a3.24,3.24,0,0,0-1.49,1.1,2.9,2.9,0,0,0-.16.66c-.09.1-1.55.14-1.31,1.2.91.11,1-.77,1.41-1.18.73-.78.94-.47,1.55-1.78.33-.14,1.18-.34.66-.88C82.4,13.4,82.46,13.93,82.33,14.21Zm7.54-.88-1.55,1-.08.74.53-.14Zm15.22,1.77c.12.12,1.45-.53,1.18-1C106.09,14.12,104.84,14.85,105.09,15.1ZM93.56,16.58c.22.22,1.82-1.22,2-1.52a1.38,1.38,0,0,0,.11-.7C95.38,14.68,93.23,16.24,93.56,16.58Zm-3.8.49c.1-.1.37-.08.47-.19.57-.6,1.65-1.38,1.63-2.22a13.18,13.18,0,0,0-2.19,2.16,36.22,36.22,0,0,0-4.17,4.05,1.05,1.05,0,0,0-.36.74c.28.27,1.53-1.16,1.77-1.41.83-.83,1.78-1.75,2.67-2.66C89.69,17.42,89.67,17.16,89.76,17.07Zm-2-1.67c-.17-.18-1.66,1.32-1.48,1.47C87,17.22,88,15.58,87.8,15.4Zm-4.14.74c-.39-.41-.84.95-1.11,1.18s-.7.3-.92.49-.74,1.14-.26,1.13c.65-.26.78-.88,1.11-1.24S84,16.53,83.66,16.14Zm0,3.54c.3.07.39-.06.6-.21s1.48-1.31,1.7-1.55a1.2,1.2,0,0,0,.36-.9c-.72.13-.83.92-1.19,1.25S83.46,18.68,83.66,19.68Zm9.16-2.36c-1.08.05-.89,1.18,0,.22ZM91.49,25c-.73.31-1.59-.82-2-.63a24.41,24.41,0,0,0-2,1.81c-.12.13-.86,1-.89,1s-.1.23.07.37l3.31,1,4.79,3.94c.82.21,1.34-1,2.15-1.33a4.81,4.81,0,0,1,1.08-.25c.56,0,2.12.63,2.8.72.42.06.75,0,.91-.4.4-1,.57-2.48,1-3.48.18-.48,1-2,1.24-2.46s1.74-1.45,1.81-1.75c-.24-2.05-2.21-4-1-6-.09-.43-1.42,0-1.77.14-1.18.35-2.35,1-3.51,1.36s-2.65.28-3.5,1.38c-.51.67-1.47,3.24-2.46,3-.74-.23-.76-2.1-1.16-2.39s-1.6,1.71-1.63,2.1C90.53,24,91.27,24.33,91.49,25Zm.59-7c-.57-.19-1.9,1.34-1.62,1.62C91.06,20,92.19,18.16,92.08,18.06ZM78,21.9c.33.35,2.51-1.88,2.66-2.29,0-.23-.21-.18-.39-.1C79.94,19.67,77.68,21.53,78,21.9Zm4.58-1c-.4-.19-1.26.79-1,1S82.82,21.07,82.62,20.87Zm2.22,1.18a1.09,1.09,0,0,0-1.18,1C83.93,23.34,85,22.21,84.84,22.05Zm-7.54.74c-.1-.09-.59.07-.59.22C76.71,23.45,77.58,23.05,77.3,22.79Zm7.24,5.62-.75.22,0,.52A.62.62,0,0,0,84.54,28.41ZM77.3,40a18.29,18.29,0,0,0-.93,1.95c-.2.46-1.07,1.41-.4,1.83.83.53,1-1.18,1.24-1.43s.94-.34,1.28-.69a7.57,7.57,0,0,0,.73-1.45c2.3.27.75-1.1,1-1.53s1.13.13,1.46-.08.67-1.16,1-1.42.9-.28,1-.58-.06-1.08.21-1.27,1.17-.11,1.31.3-2.5,2.65-2.92,3.11S82,39.54,81.25,40c-1.38.86-.8.54-1.73,1.67-.29.35-.72.51-1,.82s-.28.72-.45.88-.73.14-1.11.51-.32.79-.47.94-.57.17-.86.39c-1,.73-.87,2,.53,2,1.08,0,.64-1.25,1-1.61.2-.19.75-.21,1.08-.41,1.21-.73,2-2.21,2.92-3,.22-.19.54-.17.82-.51.52-.64.41-2,1.17-2.81.26-.27,1.59-.9,1.48-.3-.45.68-1,1.24-1.46,2-.14.24,0,.45-.09.62s-1.55,2-1.69,2.17-.57.15-.82.36-.31.69-.53,1c-.38.43-1.17.74-1.62,1.34-.18.24-.19.63-.37.81s-.6.22-.88.44A29.81,29.81,0,0,0,74.72,50c-.2.21-.58.25-.82.51a3.22,3.22,0,0,0-.59,2.22c0,.17,0,.67.29.67.05-1.12,1.4-1,1.85-1.63.29-.41.15-1.13.36-1.27s.79.07,1.06-.27c.22-1.71.21-1.12,1.36-1.45.68-.19.18-1.56,1-1.59v.59c1.07-.3,1.11-1.53,1.62-2.3l.65.21c.08,0,1.47-1.45,1.13-.65-.05.11-1.31,1.54-1.53,1.8s-.61.38-.83.71-.25.74-.33.79-.4,0-.64.17c-.59.36-1,1.41-1.54,1.86-1.75,1.59-3.91,3-4.81,5.24a5.26,5.26,0,0,0-.23,1.83l.6.32a3.59,3.59,0,0,0-.89,3.33c.49.46,1.25-1.64,1.49-1.85s.63,0,.87-.15a1.58,1.58,0,0,0,.92-1.53l1.17-.38.15-1.4,1.47.21a12.17,12.17,0,0,1-1.55,1.85c-1,1.26-.74.8-1.86,1.69-.93.74-1.61,2.13-2.62,2.85-.35,1.81-.07,3.69-.48,5.51.51-.1,1.2-.37,1.62.07-.29.86-.73.85-1.4,1.26L72,71.45c.22,0,.13-.22.32-.35s.6-.21.78-.39.3-.86.74-1.19c.71-.51,2-.46,1.71-1.77l1.62.08c-.63.21-.67,1-.88,1.18s-.77.17-1,.58-.14.76-.42,1-1,.25-1.28.65-.21.83-.39,1-1.35.36-1.43.49l-.16,2.64c.34-.1.23-.52.52-.72s.79-.13,1.1-.39,1-1.91,1.63-1.48c.74,1.32-1,1.34-1.35,1.77s-.06.79-.42,1.2-1.68.58-1.92,1.46c.05.22.81.64,1.05.72a26.91,26.91,0,0,0,3.6.84c.09,0,.24,0,.22-.07-.42-.16-.55-1.22.06-1,.36.16.48,1,.68,1.1s1.89.46,2.05.2c-.08-.74.41-1.4,1-.79l-.29.59a3.83,3.83,0,0,0,3.63-2.3c.56-.1,2.13,1.29,2.68,1.61,2.19,1.27,6.86,1.6,9.12.45a3.56,3.56,0,0,0,1.7-2.12c0-.17-.26-2-.31-2.19C95.91,72.51,95.4,71,95,69c-.52-2.72-.68-5.18-2.88-7.18-2-.48-4.48-.54-5.9-2.23l.15-.3c.76.14,1.65.82,2.41.64.2-.05.39,0,.33-.27a12.13,12.13,0,0,1-1.64-1.32c-.44-.31-1.07-.53-1.6-.91-1.69-1.2-4-3.36-4.15-5.53.39-.08.25.1.36.29.67,1.12,1.82,2.79,3.18,3-.37-.75-1.09-1.24-1.5-2a20.24,20.24,0,0,1-1.75-6c0-.13.1-1.12.44-.8.08.07.3,1.8.41,2.18a15.56,15.56,0,0,0,2.85,5.58,12.56,12.56,0,0,0,2.17,1.83c.47.07.74-.62,1.23-.72l-.43,1.23c.37.33,1,.82,1.5.67.12,0,1.38-1.32,1.08-.26-.13.48-.77.47-.42,1.28.49,1.12,1.74.41,1.81.48.07.31-.31.51-.26.79a8.92,8.92,0,0,0,.85,1.22c.62.33,1.27-1.25,1.93-1.27,0,.92-1.41,1.31-1,2.27a2.17,2.17,0,0,0,1.17,1.14,1.25,1.25,0,0,0,0,.84c.29.9.86,1,1.2,1.46.14.2.15.5.31.73.39.54,1.2.54,1.49.87s.34.88.67,1.26.51.34.65.53c.78,1,1.88,3.54,3.51,2.91,1.08-.41,2.49-2.68,3.22-3s-.41,1-.45,1c-.29.39-.3.84.24.69,1-.29,2.79-3.12,2.62-4.12-.13-.79-2.94-3-3.66-3.89a63.22,63.22,0,0,1-5-6.68c-1.09-1.86-1.76-4.07-2.71-6-.73-1.51-1.71-2.9-2.37-4.43-.45-1.06-.61-2.19-1-3.14-.47-1.15-3.36-3.25-4.53-3.75a13.82,13.82,0,0,1-1.68-.54c-.11-.23.57-.46.7-.48,1.27-.23,3.21,1.17,4.32,1.74.14-.17-.87-1.71-1.06-2s-1.37-1.48-1.45-1.65,0-.28.22-.22a10.76,10.76,0,0,1,2.37,1.48c.71.68,1.63,2.9,2.63,2.66.28-.07,1-2.6,1.51-3,.08-.34-1.36-1.43-1.71-1.7s-.85-.35-1.17-.61c-1.91-1.59-3.68-4.33-6.21-5a9.28,9.28,0,0,0-2.26-.35c-.63.13-.81,1.2-1.29,1.66.65,1.18,2.38-.89,3-.79.29,0,.14.27.12.4-.12.72-.65,1.18-.76,1.86l1.31,1.06L86.47,34l.43-1.32c-.51,0-1.72-.92-2.11-.62A6.06,6.06,0,0,1,83.65,34c-.37.44-1.29,1-1.48,1.33s-.17.9-.36,1.12-.88.26-1.25.53c-.54.4-.5,1-.75,1.17s-.69.14-1,.43c-.66.56-.2,1.56-1.47,1.42.13-.23.12-.66.31-1,.46-.65,1.38-.65,1-2-1.13.25-1.28,1.72-1.75,2.62l.22.31A.64.64,0,0,0,77.3,40Zm3.11-4.59c-.63,0-1.92,1.23-1,1.77,1.05-.08.79-1.16,1-1.77.27,0,.23,1,1.11,0,.52-.6.48-1.55.73-1.79s.78,0,1.12-.4,1-2-.21-1.35A9.61,9.61,0,0,0,80.41,35.36Zm16.53,4.46c-.49-.34-1.44,1.28-1.54,1.6a3.71,3.71,0,0,0,.38,2.3,23.13,23.13,0,0,0,3,6c1.94,2.91,3.48,6,5.59,8.75a31.26,31.26,0,0,0,4.35,5.1c.33-.24.45-.62.75-.89s1.53-.81,1.56-1.26c.09-1-4.47-4.5-5.4-5.54-2.41-2.68-3.15-5.21-4.73-8.28-.77-1.51-1.83-3-2.57-4.53C98.09,42.65,97.14,39.94,96.94,39.82Zm-22.74,9c.88.08,1.52-.57,1-1.41l-.5,0C74.4,47.47,74.16,48.45,74.2,48.82Zm38.69,12.6c-.27.08-.79.88-1.07,1.16s-1.22.74-1.1,1.23l3,2.15c.68-.4,2-1.59,1.88-2.41-.07-.49-.57-.56-.81-.83C114.29,62.19,113.78,61.16,112.89,61.42Zm-7,10.43a7,7,0,0,1-1,.31c-.46.22-2.44,1.12-2.54,1.47-.25.85,1.59,1.94,2.12,2.41.91.79.43,1.25,2.18,1,1.58-.23,4.9-2.89,5.64-4.27A26.26,26.26,0,0,0,113.62,69a4,4,0,0,0-.42-1.29,22.74,22.74,0,0,0-2.11-2.17c-.59-.4-.79.3-1,.79a30.12,30.12,0,0,1-2,4.24c-.73,1.21-1,.63-1.9.91C106,71.54,106,71.8,105.94,71.85Zm24.57,1.82c-1.77-.54-3.53-.38-5.35-.63-1.41-.2-4.13-.73-5.22-1.59-1.53-1.21-2.91-3.28-4.35-4.66-.52-.29-.85.22-1,.66a17.29,17.29,0,0,0-.15,2.6.82.82,0,0,0,.23.44c1.1.68,1.94,1.76,3,2.5.88.63,1.9,1,2.84,1.59a12.22,12.22,0,0,0,1.48,1c1.26.53,2.3,0,3.57,0a17.31,17.31,0,0,1,3.52.29C129.43,75.61,130.82,74,130.51,73.67Zm8.73,7.69a10,10,0,0,0,0-5.68c-.58-2.12-1.32-1.08-2.39-.5-.62.34-1.23.53-1.86.94a20.09,20.09,0,0,0-2.52,2.08c-.45.76.73,1.11.85,1.94a5.61,5.61,0,0,1-.19,1.52,13.65,13.65,0,0,1-2.45,3.46,2.13,2.13,0,0,1-3.16-.52c-.38-.71.09-2-1.31-1.74A31.78,31.78,0,0,0,123.57,85c-.54.5-1.57,1.94-2.16,2-1.43.15-2.07-1.8-1.76-3,.15-.57.66-.85.94-1.28.63-1,0-.62-.57-.86-.82-.34-1.11-1-1.78-1.62-1.26-1.08-5.54-3.94-7-4.2-1.33-.22-1.84,1-2.71,1.67a5.15,5.15,0,0,1-2.13.82c-2,.19-1.33-.42-2.44-1.41s-3.21-1.76-3.38-3.58c0-.35.25-.47.28-.72.06-.44-.74-1-1-1.32-1.11-1.4-1.9-3.06-3.47-4.06-.2-.13-.22-.28-.45,0-.14,2.31.78,4.35,1.34,6.5.14.57.11,1.32.25,1.82.1.35.43.61.49,1s-.36,1.09-.2,1.82a4.51,4.51,0,0,0,2.48,2.11,35.42,35.42,0,0,1,5,1.48c2.22.91,3.8,2,6.13,2.74,2.78.91,9.63,2.88,11.46,4.94A21.38,21.38,0,0,1,124.89,94a9.38,9.38,0,0,1,0,1.91c-.32,2.39-5.64,9.17-7.39,11.24-.6.73-1.61,1.43-2.12,2.16-.86,1.21-1.53,3.05-2.28,4.38-2,3.52-4.18,6.9-6.2,10.36-.33.56-1.05,1-1.22,1.67.42.37,2.45-1.86,2.81-2.15,1-.79,2-1.53,3-2.29.74-.56,1.9-1.19,2.45-1.69,2.29-2.1,4.65-5,6.79-7.25s4.56-3.72,6.66-5.77c1.41-1.38,2.59-3,4-4.44,2.18-2.19,4.71-4.21,6.87-6.44.51-.79,0-.76-.18-1.29-.32-1.16.63-1.41.56-2.16s-1.64-2.51-1.33-3c.56.21,1-.32.88-.89a1.79,1.79,0,0,0-.51.3c-.17.15-.37.78-.6.44a13.23,13.23,0,0,1-.51-1.69c0-.53.55-.58.73-1L136,86c-.5-2.28-4.57-8.22-.28-8.88,1.19-.18,1.32,1.25,1.74,2,.18.29.44.47.6.73S138.74,81.7,139.24,81.36Zm-7.1-4c-.64-.14-.79.8-1.37.72s-1-1.25-1.9-1.51c-1.14-.33-3.41.56-4.78.64-2.68.14-2.6-.68-4.46-1.9-.55-.35-1.24-.61-1.81-1-1.28-.88-2.37-2-3.66-2.85a11.33,11.33,0,0,0-1.74,1.91c-1.33,1.92,0,1.88,1.23,2.6s2.66,1.51,3.76,2.3,2.1,2,3.31,2.91c.86.19,1.08-1,1.81-1.54.3-.22,1.12-.55.75,0s-.94,1-1.26,1.55,1.39.31,1.7.23c.52-.14,2.2-1.8,2.51-1.56-.18.47-1,1-.67,1.48.61.53,1.46.18,2.19.33s2,1,1.43,1.89h-.94l-.08.37c2.72,1.85,3-1.53,3.31-3.47.2-.36,1,.62,1.12.07s-1-1.28-1.18-1.91Zm3.4-3.4c-1.08,0-.89,1.18,0,.21Zm-1.62,1.92c.06-.24.14-.55-.08-.74-.25.18-.24.46-.22.74Zm-.74.59c-.54,0-.54.44,0,.44ZM89.13,80.33a8.78,8.78,0,0,1-3.9-1.06c-.44-.31-.84-1-1.35-1a5,5,0,0,0-2,1.57c-.06.55,1.37,1.21,1.85,1.26A25,25,0,0,0,87,80.62c.62-.05,1.33.08,1.93,0C89.11,80.59,89.36,80.52,89.13,80.33ZM82.7,104a22.29,22.29,0,0,0,3,0c.4,0-.08-1.58.08-1.92,1.18.23.5.73.58,1.55a3.44,3.44,0,0,1,0,1.63,3.82,3.82,0,0,0,.81,2.45c.43.29.92-.76,1.29,0,.12.25.23.76,0,.94l-1.05.06c-.17.15,1.58,3.24,0,3.11.42-1.48-1-1.49-2.07-1.19l.22-1.34.53-.22-.52-1.54c-.31.29-.18.79-.59,1s-.59.08-.87.17-.06,1.69.12,1.9.85,0,1,.38c0,.5-.43.77-.43,1.29a13.9,13.9,0,0,0,1.18,4.24l1.43-1.89c.25-.45.65-.12.65.34s-1,1.23-.9,2l2.36.23c.44-.48-.38,0-.44-.08,0-.45.51-.73.55-1.13a5.23,5.23,0,0,0-.77-1.82l-.6.44c-.3-.52.4-.56.48-.63s.46-.62.49-.67c.45-.72,0-1.07,1.33-1.07,0,.29-.21.44-.26.7s.13.54-.07.75c-.48.5-.39-.36-.85-.26l.74,2.07c.59,0,2.17-2.25,2.51-1.93l-.74,1.78c-.4.08-.22-.09-.37-.3-.23.35-1,.61-1.09,1-.16.56.28,2,1.07,1.8.26-.08.3-.77.83-.58-.24.51.5.77,1,.75s1-.51,1.37-.58,1,.31,1.63,0c.3-.14.47-1,.63-1.38.63,0-.06.9.88.67a34.45,34.45,0,0,0,3.72-2.21c.27-.19,1-.62,1-.91-.46-1.41-1.34-2.57-1.74-4-.7-2.54-.68-5.8-1.3-8.46-.4-1.75-1.45-3.91-2-5.73a18.7,18.7,0,0,1-.18-5.28,11.85,11.85,0,0,1,.15-3c.31,0,.23,0,.33.19A7.24,7.24,0,0,1,98,90.53l.73-.44c-.15.55-.27.86.15,1.33l-.73-.15.29,1.92c.6,0,.65-.92,1-1.11.71-.36.92.39.67,1-1.69.58-1.45,1.82-1,3.25.33-.14,0-.62.29-1,.15-.16.82-.35,1.09-.54s1.33-1.2,1.58-1c-.16.73-.81.9-1.16,1.42-.54.79-.35,2.35-1.65,1.24.26,2,1.93,2.69,3.54,3.4-.1-.42-.24-.77,0-1.16,1.58.11,1.48-1.81,2.77-1.8l0,1.16c-.53.18-1.19.29-1.39.9s.13,1.28-1,1.19l1.17.73c.11-.6.77-.42,1.2-.79s.36-.82.65-1.13a14.52,14.52,0,0,1,1.27-.8c.43-.35,2.57-3.16,3.1-2.74A32,32,0,0,1,109,98.16c-.42.33-.86.1-1.13.35-.5.48.2,2-1.44,1.66-.48.14-.35.75-.56,1.07s-.44.15-.43.38c1.92,1,1.72-.64,2.51-1.85,2.44-3.76,7.51-6.91,11.75-8.21a7,7,0,0,0,1.85-.51c0-.27-1.79-1.4-2.12-1.58-5.64-3.1-11.8-4.41-17.59-7.1a27.38,27.38,0,0,1-3.25-1.63c-1-.68-1.17-2.13-2.67-1.13-1.09.73.63,2.63.35,3.67l-1.06-1.52c-.56-3.13-2.74-1.36-4.64-.85-1,.26-1.91.31-2.84.55-.55.15-2.08.64-2.29,1.12a41,41,0,0,1-.56,4.17c-.28,1-1.27,2.17-1.43,3.15a18.48,18.48,0,0,0,.29,6.29c.12.58.59.79.77,1.15s.22,1.14.41,1.66.55.84.64,1.14c.15.49.09,1.24.22,1.78-.75-.12-.86-1.09-1.22-1.67a15.87,15.87,0,0,1-2.15-12.57c.17-.85,1-1.86.34-2.46a6.84,6.84,0,0,0-3.25,3.1,26,26,0,0,0-1.12,5.83c0,.54-.21,2.17.5,2,.86-.23,1-2.22,1.14-3,.06-.6-.24-1.26.14-2h.44L80.71,97c.11.69.49.57.58.68a5.07,5.07,0,0,0-.29.67,7.09,7.09,0,0,0,0,1.6c.18.55.87-.19,1.16.32l-1.46,2.92c.51.76.93,1,1.6.26A.88.88,0,0,0,82.7,104ZM74.9,79.77a3.09,3.09,0,0,0-2.12,0c-.41,1.26-.71,2.41,1,2.38A1.52,1.52,0,0,0,74.9,79.77Zm2.74.75c-.24.22-.41.85-.78,1.07,0,.16.1.29.24.34a12.55,12.55,0,0,0,3.46-.34,1.06,1.06,0,0,0,.6-1.5c-.35-.45-1.4.15-1.9.2S78.25,80,77.64,80.52Zm-.34.1c0-.46-.38-.48-.74-.44v.59Zm58,.15H135v.44h.3ZM80.11,84.91c.48-.7,1.47-1.07.81-2.06-.45-.67-1.74-.07-2.36,0s-1.09-.06-1.62,0c-.72.1-1.36.71-2.15.58.25.32.06,1-.37,1-.6-.12-.55-.69-.52-1.19l-.5,0c-.43.14-.09.71-.08,1.09,0,.92-.08,1.9,0,2.81a11.18,11.18,0,0,0,3.35,7.31l.35-.05c.43-.27.32-2.33.59-2.89-.3-.08-.52.39-.65.6s-.39.92-.63,1c-.77.26-1-.46-.77-1.06.12-.35.77-.38,1.06-.57,1.43-.89,1.08-2,1.7-3.33a19.76,19.76,0,0,1,1.15-2c.43-.58,1.85-.68,1.68-1.93Zm3.66-2.34-2,.26.38,1.42c.42.27,2.55-.8,1.78-1.64Zm38.55.86-1.19,1.18C121.46,85.62,123.39,83.78,122.32,83.43Zm14,0h-.22l-.37.37.23.37.35-.24Zm13.46,4.14c.19-.12.77-.66.36-.88Zm-27.83,5.07c-2.61.32-6.07,1.07-8.29,2.5a66.59,66.59,0,0,0-4.87,5.63c-1.8,4.11-.71,8.58-3,12.78-1,1.82-3.36,4.64-3.51,6.7a35.7,35.7,0,0,0,.94,6.18,1.53,1.53,0,0,0,.4.48c1.06-1.7,2.35-3.23,3.27-5,4.08-5.73,6.78-12.82,11.29-18.28,2.07-2.5,4.34-3.86,5.39-7.33C123.93,94.87,124,92.38,121.91,92.64ZM79.67,96.45c-1.63.15-1.54,2.22-2.24,3.32-.23.91,1.87,1.48,2.32,1.13s-.22-1.42-.24-2S80.07,97.36,79.67,96.45Zm23.94,17.74c.24.06.31-.08.45-.21,1.44-1.32,1.85-5.82,2.28-7.78a22.17,22.17,0,0,0,.68-2.42c-.1-.69-1.06-.73-1.53-1a44.5,44.5,0,0,0-4.13-2.67,1.78,1.78,0,0,0-.85-.12c-.25.25.74,4.55.87,5.28.18,1.1.14,2.18.38,3.31C102.18,110.52,103.4,112.19,103.61,114.19Zm36.22-13.45h-.5l-.24.35.22.22C139.54,101.15,139.9,101.09,139.83,100.74ZM126,114.67c.22.29-.83,1.31-1,1.38s-.46-.07-.64,0c-.54.09-.5,1.33-.83,1.53-1.64-.26-.74.39-.8.66a15.55,15.55,0,0,1-1.42,2c-4.72,5.87-10.77,10.58-15.89,16-.72.78-3,2.65-3,3.62,0,1.14.21,2.45.15,3.71,0,.57-.58,1.87,0,2.22.28.17.55-.06.79,0a20.37,20.37,0,0,1,3.87.83l.3-.13a31.67,31.67,0,0,1,2.28-2.75c5.71-6.92,11.8-13.52,17.59-20.41,1.48-1.77,2.64-3.87,4.21-5.55,2.27-2.41,4.46-4.75,6.66-7.25,1.72-2,3.7-3.76,5.22-5.87a16.77,16.77,0,0,0-1.47-3.2c-.15-.15-.26-.32-.5-.33-.94,0-4.24,3.54-5.26,4.29a16.37,16.37,0,0,1-1.51.83c-.12.07-.1.28-.11.28s-.94-.6-1.32.24l.59.44c-.3.44-.84.69-1.18,1s-.38.7-.49.78-1.05.17-1.54.45a8.8,8.8,0,0,0-1.23,1.14l.22.37.67-.3c.14.55-.44.57-.81.9s-2.15,2.15-2.44,2.28c-.49.22-1.34-.16-1.34.74Zm12.61-12.75c-.4-.37-2.3,1.74-2.51,2.14.16.18.18.29.44.15S138.92,102.17,138.65,101.92Zm-3,3a.93.93,0,0,0-1,1C134.73,106,135.92,105.09,135.69,104.88Zm-51.49.31a7.3,7.3,0,0,0-1.11,1.57c-.06.21.15.72.36.77l1.77-.72C85.13,106.26,85,105,84.2,105.19Zm-3.79,3.09.44-.15a.51.51,0,0,1-.23.59h-.21v-.44c-.06.1-.65.52-.82.74-.37.46-.76.91-1.11,1.4,0,.32,1.59-.82,1.33-.15-.11.31-.83,1.17-1.06,1.61-.42.81-.76,1.88-1.24,2.6s-1,.89-1.27,1.53-.32,1.41-.58,2.08c-.66,1.66-2.22,3.93-3.12,5.62-.76,1.44-1.31,3.08-2.16,4.49-1,1.57-2.44,2.68-3.55,4.13-.07,1,.93-.47,1.3-.17-1.19,1.4-1.95,4.51-3.26,5.61-.17.15-.46.21-.65.38-1,.82,0,1-.09,1.39,0,.11-.35.38-.46.58-.78,1.5-1.33,2.54-2.22,4-.11.18-.49.78-.26.92,1,.6,2.17-.06,3-.08,3.44-.08,6.72.22,10.19,0,1.54-.09,3.87.16,5.61.18.64,0,2,.6,2.37-.18s-.3-1.21-.59-1.77c-.8-1.58-1.55-3.32-2.41-4.84-.56-1-1.28-1.8-1.8-2.79,0-.07.68-.27.44-.51s-.37.7-.74.37c-.32-.17-.94-1.48-1.23-1.81A29.42,29.42,0,0,0,72,129.79c-.16-.12-.54-.45-.58-.62a5.72,5.72,0,0,1,.74-1.71,2.91,2.91,0,0,1,.7-.57c.09-.16-.16-.57-.11-.9a7.28,7.28,0,0,1,1-1.88c.3-.09,2.48,1.53,2.86,1.84a36.13,36.13,0,0,1,10.72,14.42c.12.3.86,2.09,1,2.16.44.27,1.53-1,1.85-1.27.09-1,0-1.89.1-2.87.23-2.29,1-4.61.85-6.95-.36-4.1-2.47-6.87-3.43-10.62-.12-.48-.18-1.61-.32-1.9-.23-.48-1.46-.38-2-.67-1.21-.67-1.46-4.08-1.8-5.45-.45-1.77-1.18-3.46-1.55-5.26a.82.82,0,0,0-1.43.19A2.35,2.35,0,0,0,80.41,108.28Zm66.07-.59a.37.37,0,0,0-.44.44h.44ZM128.15,109h-.22l-.37.37.22.22.37-.37Zm20.26,3.69h.21l.37-.36C148.66,111.89,148.33,112.24,148.41,112.71Zm13.3,32.1c.21-2.84-.67-5.59-1-8.38-.59-4.74-1-9.55-1.37-14.3-.22-2.76-1.13-5.75-1.37-8.54l-.29-.59-.44-.13c-1.15.48-3.58,0-3.34,1.83,1.43,6,2.1,12.13,3.1,18.2a8.41,8.41,0,0,0,.37,1.7c.39,1.34.12,2.64.52,4.06a14.26,14.26,0,0,0,2.27,3.94C160.25,142.77,161.36,145.2,161.71,144.81Zm-59.57-27.95a3.69,3.69,0,0,0,1.47-2.52C102.78,115,101.69,115.64,102.14,116.86Zm47.45-1.93c.09.09.59-.07.59-.22C150.17,114.14,149.21,114.55,149.59,114.93Zm-28.39,4.44c-.3-.28-1.61.87-1.47,1.33C119.85,120.83,121.44,119.59,121.2,119.37ZM118.54,122a.85.85,0,0,0-1,.89C117.68,123.1,118.77,122.23,118.54,122ZM152,123.36c.05-.88-.61-.57-.59.15Zm-25.57,4.29c1.21-.19,1.88-1.39,2.65-2.15a14.6,14.6,0,0,0,1.57-1.39c.69-.91.07-.82-.6-.3a40,40,0,0,0-3.25,3.1C126.58,127.13,126.35,127.35,126.38,127.65Zm-10.79-2.81a.63.63,0,0,0-.74.74A.63.63,0,0,0,115.59,124.84ZM152,126.32h.22l.37-.37-.22-.22h-.22Zm-117.37,1a.74.74,0,0,0-.89.59Zm78.49.29h-.59v.3C112.76,128,113,128,113.07,127.65Zm12.72.59c.37,0,.5-.23.44-.59l-.44.37Zm-93.72,1.19c.43.18,1.59-.85,1.33-1.19C33.18,128.29,31.8,129.18,32.07,129.43Zm78.34.44c.72.36,1.21-.87.4-.42C110.7,129.52,110.35,129.79,110.41,129.87Zm42-.59-.58.16c-.14.5.14.6.51.29Zm-45.83,1,.89-.36-.79-.08Zm3,.75c-.49-.06-.83,0-.74.59l.65-.14Zm13.89,0a.92.92,0,0,0-.64.17A9.88,9.88,0,0,0,121,133c-.08.13-.37.45-.22.6.32.31,1-.92,1.19-1.1S123.75,131.36,123.42,131.06Zm-93,.29c-.79-.3-2.83,2.17-2.51,2.51.28.07.35-.15.51-.29a16.05,16.05,0,0,0,1.7-1.7C30.28,131.7,30.5,131.63,30.44,131.35Zm77.76.89c.37,0,.5-.24.44-.59l-.42.16ZM154,134.75l.3-.22-.22-.37Zm-75.54-.29c-.23-.24-.67.2-.44.44S78.72,134.69,78.48,134.46Zm-52,.74-.58.16c-.08.45,0,.49.42.41Zm54.55.59-.45-.15-.14.37.22.22Zm73,2.36c1.1-.2.31-1.19,0-.34A1.3,1.3,0,0,0,154,138.15Zm1.18,2.67c.13-.09.23-.85-.22-.74S154.69,141.17,155.2,140.82Zm-72.87.29c-.4-.06-.65.1-.59.52l.22.22Zm74.2,1h-.21l-.38.37c.06.44.26.33.58.2Zm-134,.15c-.22.27-1.07.81-.59,1.18l1-1Zm135.41,1.77c-.3.32-1,.73-.44,1.18l.81-1ZM21.17,146.92c-.19.23-.3.64,0,.84l.37-1A1.58,1.58,0,0,0,21.17,146.92Zm138.91,2.47c0-.38.28-.74-.29-.73l-.15.73Zm-68,2.09a11.51,11.51,0,0,0-2.72-.6c-3.36-.4-6.91-.13-10.35-.3-6.27-.32-12.11-.69-18.48-.6-3.42.05-7.29.07-10.6,1.08a8.37,8.37,0,0,0-1.82.85c-.41-1-.76,0-1.1.44l1-.44a14.65,14.65,0,0,1-.6,2.21c-.11.43,0,.87-.16,1.32s-.5.62-.48.8.62,1.34.72,1.51c1.66,2.89,5.18,2.63,8,3.05,10.45,1.55,20.84,3.47,31.25,5.12l6.59,1c.3-.13.49-.39.32-.71a13.33,13.33,0,0,0-1.22-.86c-.29-.08-.85.16-1.29.13s-.76-.27-1.17-.29l-.09-.6a6.54,6.54,0,0,1-3.4.14s.16-.35.23-.42,1.36-.92.72-1-.72,1-1.14,1.28l-8.38-1.14v-.73c-.5-.15-.65.46-1,.56-2.26-.45-5.1-.48-7.29-1.08a5.75,5.75,0,0,1-1-.5c-.29-.08-.63.23-1,.23s-1-.3-1.39-.36c-1-.14-1.93-.23-2.9-.36l-.32-.58a17.55,17.55,0,0,1-1.76.32c-.46,0-1.63-.26-2.18-.35-.83-.12-1.65-.41-2.42-.53s-1.85.21-2.51-.46l.38-.89c-.65-.16-.73.71-1.11.75-1,.11-3.45-.38-4-1.2-.68-1.06-1.07-3.11-.36-4.19.11-.16.33-.21.42-.35s.23-.76.37-.92,1.64-1,1.86-1.1a17.06,17.06,0,0,1,4.34-.68c9.42-.49,18.72.68,28.1.75,1.73,0,2.77.17,4.42.29,1.17.09,2.32-.13,3.48-.15ZM46,150.13c-.54,0-.54.44,0,.45Zm115.16.45c-.13.09-.23.81.22.74C161.83,151.07,161.39,150.38,161.12,150.58Zm-139.85.15c-.18-.2-.63.38-.44.59S21.46,150.93,21.27,150.73Zm82.23,1c.11.21,3.75,1.35,4.43,1.7,1.11.57,3.49,2.81,3.65,4a17.32,17.32,0,0,1,0,3.22c-.28,2.42-3,5.07-5.27,5.67-.47.12-2.21.13-1.89.78s1.92.26,2.59.08a8.86,8.86,0,0,0,4.72-3.72c2.83-5.45-.46-10.47-6-12a7.37,7.37,0,0,0-2.28-.3C103.48,151.35,103.41,151.57,103.5,151.73Zm59.54.77c.36-.9-.41-1-.3,0Zm-108.65-.59c-.54,0-.54.44,0,.44ZM164.81,154c0-.47.6-1-.14-1l-.3.81ZM51.73,158.12c1-.45,2.49-.08,3.31-.9s1-2.3.23-3a6.84,6.84,0,0,0-2.62-.88,4.22,4.22,0,0,0-1.28,1.25,7.86,7.86,0,0,0-.41,1c-.25.21-1.6.2-1.6,1.21.85,0,1.26-.64,1.77-1.18,0,.53.8,1,.87,1.43S51.65,157.72,51.73,158.12Zm-5.47-4.73c-.41-.43-1.38.92-.44.68C46.08,154,46.44,153.59,46.26,153.39Zm-25.28,1a.38.38,0,0,0-.44.45H21Zm40.65.45c-.27-.21-.68.49-.22.59S61.75,155,61.63,154.87Zm-5.17,2.07c.26.28.66-.6.22-.59C56.53,156.35,56.37,156.84,56.46,156.94Zm13.6-.45c-.09.09.12.44.22.44C70.69,156.93,70.28,156.27,70.06,156.49Zm-48.79.89c-.7,0-.88,1.15-.07.6Zm37.7.45a2.05,2.05,0,0,1-.44-.15C58.14,158.59,59.22,158.14,59,157.83Zm2.22,1c.29,0,.58,0,.59-.37l-.22-.22-.37.37Zm7.39-.44c-.92-.16-.19.64,0,.44Zm-10.79.44a.52.52,0,0,0-.59.22l.22.22.37-.15ZM60.15,160c.17.17,1.05-.63.52-.74C60.39,159.25,60.07,159.75,60.15,160Zm-39,1a.57.57,0,0,0,.59-.22l-.22-.52C21.3,160.44,21,160.94,21.13,161.08Zm62.38-.44c-.47-.1-.59.23-.74.58l.65-.13Zm-34.59.14c-.21-.2-.87.69-.89.89C48.21,161.83,49.08,160.94,48.92,160.78Zm23.06,1c.14.15.88-.61.88-.67C72.89,160.64,71.78,161.39,72,161.82Zm-20.47-.44c-.35.07-.22.66.14.59S51.87,161.3,51.51,161.38Zm30.67.44a.38.38,0,0,0,.44-.45l-.44.15ZM55,161.67l-.59.15v.29a.51.51,0,0,0,.59-.22Zm20.25.3c-.26-.23-.69.31-.74.59C74.79,162.72,75.42,162.13,75.23,162Zm3.55,0h-.22l-.37.59.52-.15ZM85,163.15l.59-1.18-1,.68ZM57.2,163c-.48-.42-.67.8-.15.37C57.16,163.28,57.27,163.07,57.2,163Zm23.94,0c-.15-.15-.59.3-.44.44S81.29,163.15,81.14,163Zm-28.38.74c.09.08.44-.12.44-.22C53.2,163.11,52.54,163.52,52.76,163.74Zm13.16.3c-.09.08.12.44.22.44C66.55,164.48,66.14,163.81,65.92,164Zm-7.76,1c-.35.08-.22.67.14.59S58.52,165,58.16,165.07Zm7.17,0c-.48-.42-.67.8-.15.37C65.29,165.35,65.4,165.14,65.33,165.07Zm3.4,0c-.9,0-.71.89,0,.22Zm2.8.59c-.15-.15-.59.3-.44.45S71.69,165.81,71.53,165.66Zm-48.19.15a.37.37,0,0,0-.44.44l.44-.14Zm51.45,0c-.17-.17-.78.21-.59.44S75,166.07,74.79,165.81Zm-7.25.74V166l-.42.17,0,.42Zm10.8-.15c-.27-.55-1-.33-.37.15Zm-1.19.6c-.15-.16-.59.29-.44.44S77.3,167.14,77.15,167Zm3.25.29h-.59v.3h.59Zm30.24,0c-.29,0-.27.68.14.59S110.75,167.29,110.64,167.29ZM90,167.74c-.15-.12-.54.24-.59.44l.43,0Zm-7.53.88c1.09-.21.31-1.19,0-.35A.84.84,0,0,0,82.48,168.62ZM93.12,168c-.09-.08-.44.12-.44.22C92.68,168.66,93.34,168.25,93.12,168Zm-14,.15c-.09.08.12.44.22.44C79.71,168.62,79.3,168,79.08,168.18Zm-54.85.74c.33-.78-.52-.81-.44,0Zm62.23-.44c-.85-.42-1.44.43-1.76,1.1.34.47.81-.3,1.12-.5a1.34,1.34,0,0,1,.65-.17Zm2.67,0c-.92-.15-.19.64,0,.45Zm5.32,1.78-.58.16C93.75,171.22,94.27,170.78,94.45,170.25Zm-14.78,4.58c-.29-.27-2,1.25-1.78,1.78C78,176.74,79.87,175,79.67,174.83Zm14.19.15c-.55,0-.55.44,0,.44Zm.15.89c.82.35,2.57,1.93,3.35,2,1.27.19-.24-.87-.56-1.07a19.23,19.23,0,0,0-2.72-1.27ZM75.77,178.4a14.35,14.35,0,0,0-2.31,2c0,.11.22.25.44.15a14.66,14.66,0,0,0,2.36-1.78Zm-44.89.72c-.91-.15-.18.64,0,.45Zm4.44,2.22-.52.15-.07.44.52-.14Zm33.11,1c.3.09,1-.17.89-.52C69.21,181.32,68.2,182,68.43,182.38Zm-31,.29c-.17-.17-1.06.73-.89.89C37,183.65,37.36,183.13,37.39,182.67Zm29.76,1.38c.11-.17.63-.15.17-.49-.11.29-1.41,1-1.11,1.33S67.06,184.18,67.15,184.05Zm-22.52,1.73c-.15-.15-.59.29-.44.44S44.78,185.93,44.63,185.78Zm13.6,0c-.12-.13-.85.36-.74.44h.74Zm-4,.89c-.32-.09-.41.1-.59.21s-.68.43-.59.67C53.4,187.75,54.46,186.87,54.24,186.67Zm3.25.29H56.9v.3h.59Z"></path><path class="cls-1" d="M56.78,80.75c.13.08.58,0,.87.09,1.51.53,5.87,3.79,6.41,5.26.11.3,0,.66.16.88s.42.23.59.45.3.84.55,1.22c1,1.63,2.23,2.78,2.82,4.72a31.65,31.65,0,0,1,1.14,4.33c.07,1.17-.23,2.25-.15,3.4-.2,1.12-2.64,0-3.39-.15-3.39-.67-7-.59-10.36-1.17-3-.52-6.78-2.61-9.65-3.8A60.1,60.1,0,0,0,27,91.12c-6.95-.53-16,.6-22,4.61a22,22,0,0,1-2.61,2c-.46.12-.32-1.59-.29-1.91.16-1.29,1-1.49,2-2a55.11,55.11,0,0,1,16.11-4.44c6.55-.82,14.3.64,20.54,2.79,2.41.84,5,2.31,7.34,3,.21.06,1.61.45,1.59,0a64,64,0,0,0-8.27-3.84A48.85,48.85,0,0,0,12.52,90,46.26,46.26,0,0,0,3,93.48c-.37,0,0-.91,0-1.14.84-2.62,3.87-5.72,5.66-7.8,1.46-1.7,1.76-2.56,3.89-3.8,1.78-1,4.24-2.26,6.11-3.21,3.84-2,10.62-2,14.91-2.24,1.8-.1,5.74-.74,7.36-.11a19.61,19.61,0,0,0,3.69.6A46.49,46.49,0,0,1,56,79.8,1.9,1.9,0,0,1,56.78,80.75ZM40.49,76.33c-.25-.26-1.1.69-1.21.94-.31.72.88.06,1.07-.26A.92.92,0,0,0,40.49,76.33Zm-7,.45a.86.86,0,0,0-1,.73A.85.85,0,0,0,33.54,76.78ZM47,77.07c-.36-.42-1.34.74-1.19.89S47.23,77.35,47,77.07Zm-18.63,1c.25.11,1.32-.74,1.33-.82C29.77,76.68,28.25,77.79,28.37,78.11ZM43,77.37c-.16-.18-.91.56-.73.88C42.66,78.08,43.09,77.89,43,77.37Zm2.66.59c-.06-.09-1.33.77-.66,1.18C45.36,78.79,45.77,78.54,45.66,78Zm-7.83,1.18c.53.08,1-.48.52-.88C37.92,78.46,37.75,78.63,37.83,79.14Zm10.35.15c-.72-.13-1.07.27-1.33.89C47,80.27,48.47,79.53,48.18,79.29Zm-7,.15c-.45-.26-1.47.69-1.47,1C39.74,81.13,41.44,79.59,41.23,79.44Zm9.46.59c-.17-.16-1.24.53-1.18.89A.92.92,0,0,0,50.69,80Zm-4.48.61c-.13,0-.23.18-.32.27l.15.45L46.7,81C46.69,80.69,46.49,80.57,46.21,80.64Zm7.29,0c-.44-.24-1.25,1-1.18,1A1.05,1.05,0,0,0,53.5,80.62ZM49,81.36c-.32.07-.2.59,0,.59S49.5,81.25,49,81.36Zm-6.72.15c-.09-.09-.44.12-.44.22C41.83,82.14,42.49,81.73,42.27,81.51Zm1.92,1.33c.42.1,1.32-.28,1.18-.81S44.09,82.43,44.19,82.84Zm11.38-.45v-.21L55.35,82l-.52.37.23.22Zm-4.21-.14c-.06,0-.15.16-.22.22C51.73,83.31,52.16,82,51.36,82.25Zm-.22.89c-.69-.1-1.13.13-1,.88C50.69,84,51.32,83.83,51.14,83.14Zm-7.25.14c-.15-.15-.59.29-.44.45S44,83.44,43.89,83.28Zm13.3.89.3-.74L56.9,84C56.8,84.2,57.11,84.25,57.19,84.17Zm-9.9-.44c-.73.17-1.89.51-1.77,1.47C45.74,85.43,47.52,83.94,47.29,83.73Zm13.6,0h-.5l-.24.35.22.22C60.6,84.14,61,84.08,60.89,83.73Zm-2.81,2.51c.48.08,1.78-1.08,1.77-1.41,0-.5-1.05.36-1.16.47S58,86.13,58.08,86.24Zm-5.17-1.48c-.42-.06-.9.1-.89.59A.89.89,0,0,0,52.91,84.76Zm-3.7.3c-.38-.27-1.38.71-1.18.88C48.56,86,49.29,85.72,49.21,85.06Zm13,.59c-.76-.05-1.07.61-1.47,1.11C61.18,87.46,62.42,85.84,62.22,85.65ZM50.69,86.83c.22.08.88-.21.89-.37C51.59,86.06,50.55,86.3,50.69,86.83Zm7.24-.44a.37.37,0,0,0-.44.44h.44ZM63.55,88c-.69-.27-1.17.52-1.48,1C62.49,89.32,63.77,88.27,63.55,88Zm-3.69,0a.81.81,0,0,0-.89.88C59.13,89.07,60,88.17,59.86,88Zm-3.55.14c-.21-.19-1.62.89-1.33,1.19A1.37,1.37,0,0,0,56.31,88.16Zm-3.7.3c-.55,0-1.23.43-1.18,1C51.54,89.61,52.88,89,52.61,88.46Zm5.32,1.33c-.15-.17-.9.58-.73.74A.62.62,0,0,0,57.93,89.79ZM60.3,91c.36,0,1.29-1,.67-1C60.88,89.94,60.13,90.7,60.3,91ZM51,90.53c.08-.77-1.37-.14-.67.29Zm12.12,1c.18.19,1.77-.69,1.63-1.25-.17-.18-.19-.29-.45-.15S62.87,91.32,63.11,91.56Zm-9.46-.73c-.47-.15-.73.32-.37.58l.37-.36Zm6.5.44c-.14-.14-.64.17-.73.37v.22C59.82,92.05,60.41,91.54,60.15,91.27ZM48.48,92.6c.18.2.85-.75.73-.89C49.06,91.83,48.2,92.28,48.48,92.6Zm10.19.15h-.59v.44a.5.5,0,0,0,.59-.22Zm2.52.74c.14.14.63-.18.73-.37l-.51-.22C61.22,93,61.1,93.4,61.19,93.49Zm3.62-.44c-.11,0-.55.49-.15.59S65.1,93,64.81,93.05ZM54.24,94.23c-.09-.44-1-.35-.89.14Zm5.47.59c.64.14,1.71-1,.67-.89A1,1,0,0,0,59.71,94.82Zm-3.11-.15c-.16-.16-1.21.8-.66.89Zm6.36.44a6,6,0,0,0-1,.82c-.14.21-.08.36.08.36S63.15,95.34,63,95.11ZM57.2,97.33h-.59v.15l.59.15Zm11.23,1.93L57.49,97.63l1.33.66c3,.4,6.43,1.7,9.39,1.26C68.47,99.51,68.46,99.63,68.43,99.26Z"></path><path class="cls-1" d="M69.32,74.7a.6.6,0,0,1-.53-.14c-.88-.57-1.66-1.7-2.56-2.32-.5-.66.71-.8.57-1.53-.55-.1-.73.51-1.13.73-.59.32-1.06-.55-1.67-.58l.29-.89c-.57-.18-.77.49-1.22.43-.24,0-2.65-1.22-3-1.43s-.62-.65-.89-.74a13.79,13.79,0,0,0-2.76-.34c-.12,0-1.57-.58-1,0s1.46.35,2,.48c1.7.37,8,4.51,9.43,5.8.38.36,2.29,2.08,1.77,2.59a1.53,1.53,0,0,1-.37,0c-.2,0-2-1.67-2.46-2a47.27,47.27,0,0,0-16.8-7c-5.75-1-11.32.77-17,.4-2.64-.17-5.63-1.39-8.23-1-3.44.53-7.52,2.48-9.64,5.29a35.21,35.21,0,0,1-2,2.93c-.8.27-1-1.12-.95-1.69.2-2.87,6.29-6.42,8.84-7,3.75-.83,5.82-.22,9.43.12,4.42.4,8.54-.61,12.93-.6l-.73-1-.23-.08c-.52.11-1,.35-1.49.44-5.05.79-9.95-.08-14.92-.43a17.61,17.61,0,0,0-11.5,3.57,13.46,13.46,0,0,0-1.65,1.46c-.41.16-.19-.91-.15-1a11.86,11.86,0,0,1,2.58-3.33,19.28,19.28,0,0,1,7.14-4c2.78-.89,5.51-1.68,8.24-2.7,5.64-2.11,11-5.23,17.22-5.26,3.56,0,14,2,16.49,4.51.92.93,1.38,1.36,2.36,2.23a12.05,12.05,0,0,1,2.89,3.91.63.63,0,0,1-.23.82,1.44,1.44,0,0,1,1,1.34,31.3,31.3,0,0,1,.17,5A11.38,11.38,0,0,0,69.32,74.7ZM49.21,64.5c.36.06.86,0,.74-.52S49,64.16,49.21,64.5Zm7.54-.59a.6.6,0,0,0-.74.59l.66-.14Zm2.37,1a2.85,2.85,0,0,0-1.92,1.78C57.79,66.94,59.41,65.27,59.12,64.94ZM55,65.68c-.81-.07-.78.77,0,.44ZM60.45,67c-.48-.1-.73.34-.74.74C59.87,67.92,60.61,67.17,60.45,67Zm2.22,1c.35.06.62-.07.59-.44Zm-.45.44c-.08-.08-.44.13-.44.22C61.78,69.12,62.45,68.72,62.22,68.49Zm4.88,1.78c.62-.1,1.24-.48,1.18-1.19C68.2,69,66.88,70.06,67.1,70.27Z"></path><path class="cls-1" d="M69.73,105.58c-.13.13-.48.12-.54.21s.06.49-.16.8c-.66,1-3.1.92-4.18,1.14a24.28,24.28,0,0,1-3.31.83c-.34,0-.7.13-.94-.21,0-.11,1.42-1.17,1-1.7-1.13.59-1.35,1.92-2.7,2.18a15.74,15.74,0,0,1-1.74.2c-.42,0-.65-.4-.88-.41s-.79.47-1.2.54a12.89,12.89,0,0,1-2.06,0c-.23,0,.34-.53-.14-.45-1.33.88-4.13.71-5.78.6-.16,0-.81-.08-.81-.23l1-1.55c-.95-.11-1.27,1.16-2.15,1.32a34.77,34.77,0,0,1-7.61-1c-.74-.75-1.54-.28-2.57-.39-1.35-.14-3.12-.53-4.58-.74-.78-.11-2-.14-1.71-1.16-.56-.14-.84.5-1.26.58-1.72.33-3.59-.59-5.19-.87-.81-.14-2,0-2.79-.16-.32-.06-.49-.41-.59-.41a4.59,4.59,0,0,1-.9.4c-3.38.6-6.94.53-10.33,1.06-.48.07-1.31.53-2,.69-2,.46-5.16.94-5.58-1.73-.39-2.43,1.29-2.4,2.93-3.44s3.48-2.67,5.28-3.44a70.57,70.57,0,0,1,7.79-2.85c12.1-3.09,26.64,5.69,38.58,8.06,2.14.42,4.32.54,6.46.79a13.43,13.43,0,0,0,1.79.4c.71,0,1.72-.4,2.5-.42s1.43.22,2.08.16,2.48-1.07,2.59.07A2.91,2.91,0,0,1,69.73,105.58Zm-49.49-9,1-.51C20.91,95.59,20.11,96,20.24,96.59Zm2.66.89c-.08-.08-.44.13-.44.22C22.46,98.11,23.12,97.71,22.9,97.48Zm5.62,1.92c.19-.27-.5-.71-.74-.22C27.7,99.63,28.42,99.53,28.52,99.4Zm3.1-.29c-.07-.08-1.3.44-1,.88A.84.84,0,0,0,31.62,99.11Zm-17.74.59c-.36-.36-2.34,1.87-2.59,2.21s-.28.3-.21.6c.09.11,1.19-.84,1.33-1S14.15,100,13.88,99.7Zm10.35,0a1.13,1.13,0,0,0-1.18,1C23.32,101,24.41,99.86,24.23,99.7Zm10.35,0c-.24-.1-.88.16-.88.37C33.69,100.47,34.72,100.16,34.58,99.7Zm-14,.3c-.15-.15-2.31,1.25-1.93,1.62a.91.91,0,0,0,.68-.14C19.43,101.4,20.68,100.14,20.54,100ZM37,100c-.12,0-1.19,1.2-.59,1.33C36.86,101.42,37.45,100,37,100Zm-19.74.14A1.48,1.48,0,0,0,16,101C16,101.09,17.24,100.38,17.28,100.14Zm9.91.15c-.59-.4-2.34,1.52-2.07,1.78l.67-.14Zm11.23,2.22c.3.3.81-.61,1-.74s.49-.22.66-.38.38-.8-.07-.51a12.39,12.39,0,0,0-.88.89C38.94,101.91,38.08,102.16,38.42,102.51ZM15.8,101.18h-.21l-.52.37.36.22.37-.37Zm13.9,0c-.31,0-1.08,0-.88.51S29.85,101.6,29.7,101.18Zm-7.1.15c-.48-.06-.82,0-.73.59l.65-.14Zm20.55,0c-.21,0-.39,0-.52.14l-.07.45.58-.17Zm-10.49.15c-.53-.07-1,.15-.89.73C32.1,102.4,32.83,101.63,32.66,101.48Zm-14.34.88a.93.93,0,0,0-1.18,1C17.3,103.57,18.23,102.55,18.32,102.36Zm3.25,0h-.44v.45l.44-.15Zm13.75,0c-.39-.37-2.85,2.25-2.81,2.44.13.6,1.3-.43,1.48-.59S35.51,102.55,35.32,102.36Zm-6.95.15c-.23-.21-1.39.73-1.48,1A1.2,1.2,0,0,0,28.37,102.51Zm13.45.15c-.35-.19-1.2.73-1,.88C41.14,103.74,42,102.81,41.82,102.66ZM19.5,104.43c.26.27,1.73-1.16,1.48-1.48C20.35,103.22,19.38,103.56,19.5,104.43ZM24.38,103c-.24-.22-2.26,1.44-1.92,1.78C23,105,24.65,103.21,24.38,103Zm13.75,0c-.23-.21-1.68,1.15-1.48,1.33C37.17,104.56,38.27,103.09,38.13,103Zm-7.1.3c-.35-.12-1.24.49-1.18.81C30,104.66,31.24,103.43,31,103.25Zm17,.15c-.52-.07-1,.16-.88.74C47.47,104.32,48.21,103.55,48,103.4Zm3.1.29c-.21,0-.39,0-.52.15l-.06.44.57-.16Zm3.55,0h-.59v.3C54.37,104,54.6,104,54.68,103.69Zm-10.79.3c-.37,0-.5.24-.44.59l.44-.37ZM9,104.29c-.29,0-.48.25-.66.44s-.91,1.08-.81,1.18C8.27,105.74,9.08,105.11,9,104.29Zm17.6,0c-.3-.14-1.55.53-1.19.88S26.8,104.47,26.6,104.29Zm12.86.59.5,0,.24-.35-.22-.22C39.75,104.46,39.39,104.52,39.46,104.88Zm7.09-.3c-.07-.08-1.11.64-.51.74C46.33,105.37,46.63,104.87,46.55,104.58Zm6.21.89.67-.29C53.64,104.16,52.62,104.72,52.76,105.47Zm-23.5-.59h-.43l-.16.58c.28,0,.41-.2.59-.37Zm6.65.14a.86.86,0,0,0-.89,1A.86.86,0,0,0,35.91,105Zm6.65.3c-.21,0-.39,0-.52.14l-.07.45h.59Zm23.9.55c.23-.27.17-.62-.17-.55-.18,0-.29.45-.42.55-.44.35-1.07.58-1.43,1.15.74.63,1.35-.47,1.72-1C66.22,106,66.39,106,66.46,105.87Zm-6.9-.4c-.15-.15-.59.29-.44.44S59.71,105.62,59.56,105.47Zm-13.75.15c-.36-.36-1,.54-1,.88C44.84,106.56,46.17,106,45.81,105.62Zm3.26,0c-.22-.23-1.88,1.18-1.11,1.33C48.52,106.72,49.12,106.3,49.07,105.62Zm13.74,0c-.38-.16-1.19.89-1,1C62.44,106.77,62.82,106.24,62.81,105.62Zm-31,.29-.74.59C31.57,106.6,31.75,106.45,31.77,105.91Zm23.65.3-.74.74A.69.69,0,0,0,55.42,106.21Zm-17.15.15h-.73V107C37.63,107.05,38.41,106.68,38.27,106.36Zm3,.29-.43,0-.16.57c.28.06.41-.19.59-.37Zm10.13,0c-.14,0-2.33,1.46-1.48,1.92a8.54,8.54,0,0,0,1.63-1.47A.32.32,0,0,0,51.36,106.65Zm6.72.45c-.32,0-1.33.28-1,.73C57.72,108.09,57.91,107.67,58.08,107.1Z"></path><path class="cls-1" d="M43,73.67h-.29l-.39.56a23.59,23.59,0,0,0-2.63-.42c-5.47-.23-14.41.26-19.56,1.89-1.59.5-5.06,2.24-6.59,1.78-1-.3.25-2.39.58-2.91a12.61,12.61,0,0,1,6.36-5.17c5.4-2.22,8.79.18,14,.13,1.88,0,4.51-.76,6.51-.89a35.13,35.13,0,0,1,11.78,1.23c3.48.94,12.84,5.47,14.9,8.31a14.54,14.54,0,0,1,1.62,4.43c-.08,1.81-2,1.08-3,1-4.1-.44-4.24-1.58-7.42-3.52a42.29,42.29,0,0,0-9.95-4.39c-1.14-.33-5.13-1-5.71-1.55A.82.82,0,0,1,43,73.67ZM42.41,71c-.91.43-1.64.7-1.62,1.92A3.19,3.19,0,0,0,42.41,71c.1-.05.28,0,.52-.14a8,8,0,0,0,1-1c0-.6-1.13.36-1.25.52S42.5,70.84,42.41,71Zm3.4.14c.16.16,1-.6.52-.73S45.76,70.8,45.81,71.15Zm5.62,1c.33.39,1.47-.87,1.48-1s-.2-.19-.4-.1S51.36,72.12,51.43,72.19Zm-17.89.45.31.23,1.32-1.34c-.21-.32-.33-.16-.58,0C34.07,71.89,34.13,72.53,33.54,72.64Zm5.33-1.34c-.77,0-1.45.49-1.33,1.33C37.69,72.81,39,71.47,38.87,71.3Zm6.35.3c-.28-.31-2.26,1.73-1.4,1.77C44,73.38,45.52,72.07,45.22,71.6Zm3.4,0a5,5,0,0,0-.86.69c-.17.19-.44.44-.1.64S48.7,71.69,48.62,71.6Zm-17,.15c-.22-.21-.82.18-.88.52C31,72.87,31.77,71.88,31.62,71.75Zm23.65,0c-.19-.23-1.22.94-.66,1A.87.87,0,0,0,55.27,71.75ZM26.89,72.93c.38,0,.5-.24.44-.59l-.42.17Zm-3.25-.15a4.05,4.05,0,0,0-2.07,1.78c1,.24,1-.67,1.47-1.12C23.36,73.14,23.78,73.4,23.64,72.78Zm17,.15-.72.17,0,.57C40.05,73.84,40.81,73.09,40.64,72.93Zm16.78,0c-.11,0-.55.5-.15.59S57.71,72.93,57.42,72.93Zm-8.5,1.92c.12.13,1.38-.71,1.33-1C50.1,73.2,48.6,74.52,48.92,74.85ZM46.55,74a.71.71,0,0,0-.73.36l.36.23.37-.38Zm5.92.88c.36.16,1.19-.77.66-.88S52.43,74.48,52.47,74.85Zm7.09-.14c-.34-.23-1.58.66-1.33.88A1.13,1.13,0,0,0,59.56,74.71Zm-4.14.59a1,1,0,0,0-.59.07c-.12.07-.18.42-.29.59s-.44.39-.44.45c-.05.68.69-.39.74-.44S55.78,75.65,55.42,75.3Zm2.81.74c-.37-.06-.84.07-.88.51C57.75,77.07,58.31,76.57,58.23,76Zm6.06.59c-.46-.07-.66.14-.59.59C64.06,77.28,64.16,76.88,64.29,76.63Zm-4,.74c-.29-.05-.58,0-.59.36l.22.23.37-.37Zm3.25,0c-.24.17-1.26.45-1.18.81C62.52,78.87,63.74,78,63.55,77.37ZM60.75,80c.52.35,1.59-1.21,1.47-1.33C61.64,79,60.73,79.19,60.75,80Zm4.58-.89a1.18,1.18,0,0,0-1.18,1A1.14,1.14,0,0,0,65.33,79.14Zm-2.07,2.07h.22l.37-.37c-.21-.33-.28-.1-.59-.07Z"></path><path class="cls-1" d="M126.83,141.54a35.61,35.61,0,0,1,7.6-14.33c2.85-3.31,8.22-7.71,12.29-9.3.36-.14,1.57-.59,1.84-.4.48.33,1.11,4.76,1,5.47-.13,1-.75.84-1.51,1.3a33.13,33.13,0,0,0-5.05,3.37,37.4,37.4,0,0,0-8.23,10.26c-.52,1.06-1.27,4.08-1.89,4.76a.79.79,0,0,1-.75.3A24,24,0,0,1,126.83,141.54Zm14.92-18.92c.83.09,1.05-.6,1.47-1s1.81-1.36,1.78-1.92-1.07.35-1.18.44a10.3,10.3,0,0,0-1,1.34C142.44,121.9,141.65,122,141.75,122.62Zm-1.92,1.93c.27.24,1.35-.86,1.18-1C140.87,123.63,139.55,124.28,139.83,124.55Zm-1.77,2.07c-.12-.14-2.59,2.08-2.89,2.21a9.39,9.39,0,0,0-1.93,2.36c-.14.21-.82.71-.73.9.26.53.84-.67.9-.73,1.07-1.09,2.34-2.6,3.39-3.56C137,127.59,138.38,127,138.06,126.62Zm-6.55,6.91c.11-.11.3-.58.12-.7l-1,1A2,2,0,0,0,131.51,133.53ZM135,133c-.25-.24-1.58,1.37-1.77,1.56-.42.43-1.15.67-1.18,1.39.59.12.64-.44,1-.73A7.55,7.55,0,0,0,135,133Zm-3.55,3.55c-.21-.11-.93.4-.73.59S131.34,136.72,131.4,136.53ZM129.93,138c-.28-.29-.9.79-1.26.73l-.37.52c.45.59.82-.35,1.08-.61C129.43,138.6,130.28,138.37,129.93,138Z"></path><path class="cls-1" d="M68.43,103.25c-.92.61-1.52,0-2.31,0-2.59-.15-5.28,0-8-.31-12.49-1.57-26.71-10.72-39-9.3C16.39,94,8.09,96.58,5.85,98.1c-.67.45-1.28,1.11-2,1.57a5.51,5.51,0,0,1-2.41,1.14c.24-.27.4-.56.66-.81a37.8,37.8,0,0,1,12.08-6.7c5.15-1.48,13.05-1.31,18.33-.36s10.63,3.94,15.75,5.83c4,1.49,10,3.7,14.15,3.75C64.41,102.54,66.83,101.75,68.43,103.25Z"></path><path class="cls-1" d="M171.91,150.87c.72.12,1-.63,1.7-.6,1.73.07-1.3,1.91-1.71,2.14s-1,.64-1.32.46a1,1,0,0,0,.44-1.11c-.32-.33-1.27,1.11-1.37,1.38s0,.5,0,.69-.57.42-.65.85c0,.2.11,2,.15,2.32.11.91.62,1.93.8,2.89.06.33.39,1.84,0,1.93a10.28,10.28,0,0,1-2.44-2.15c0-.23.16-.43.15-.66-1.28.51-1.8-.83-2.75-1.31s-1.49.16-2.23.54c-1.09.58-2.39,1.65-3.34,2.13-.32.16-.92.26-1.29.41-.19-.22.85-3.14,1.08-3.58.49-.93,1.48-1.32,1.58-2.33l-.59.14c0-1.33-1.56-2.1-2.44-2.95A31.79,31.79,0,0,1,155,149.4c-.11-.15-.28-.19-.22-.45.81.27,2.35,0,3,.44a29.87,29.87,0,0,1,2.51,2.52c.66.69,1.15,1.56,1.91,2.22.29.25,1.36.83,1.4.9s-.28.73.08.72c.07,0,.27-.37.48-.42.48-.12.85.24,1.72-.19,3.48-1.76-1.43-6.78-2.42-8.79l1.55-3.16a19.29,19.29,0,0,1,1,3,10.58,10.58,0,0,1,.64,1.43c.1.53,0,1,.14,1.49a10.89,10.89,0,0,0,5,.91l.24.22Zm-3.11,0c0-.31.26-.38-.07-.59l-.37.37v.22Zm-1,8c.29-.18.87-.55.37-.88Zm-7.69.44c.29-.18.87-.54.37-.88Z"></path><path class="cls-1" d="M56,122.92c.11,0,.32-.07.3.09.31,1.76-1.21.84-2.29.79a33.07,33.07,0,0,0-9.36,1,11.35,11.35,0,0,1-2,.32c-.38-.1-.69-1-.66-1.37.06-.57.76-.89.85-1.42l-1.33.44c-.09-.7-1.17-2.62-.51-3.09.88-.62,3.61-1.13,4.74-1.33s2.66-.43,3.84-.59a47.46,47.46,0,0,1,7.35,0c.16,0,.22.38.22.51A14.37,14.37,0,0,1,56,122.92c-1.26,0-.75,1.08-.13.38A1,1,0,0,0,56,122.92Zm-5.17-1.33c-.08-.3-.31-.33-.59-.3v.3Zm-6.06,2.22A5.21,5.21,0,0,0,46.85,122c.1-.19.19-.32-.08-.37a14.81,14.81,0,0,0-1.85,1.54A1,1,0,0,0,44.78,123.81Zm8.87-2.07c-.16-.18-1.65,1.31-1.48,1.48C52.62,123.37,53.88,122,53.65,121.74Z"></path><path class="cls-1" d="M166.88,83.58c1.91-.67,3.29-.12,5.11,0a65.22,65.22,0,0,1,8.83.77c.74.15,1.91.45,1.07,1.3s-1.26.38-2.22.3c-5.82-.48-11.74-1.25-17.59-1.33-3.15-.05-6.2-.43-9.31-.6-.33,0-.72.19-1.18.16a16.7,16.7,0,0,1-2.19-.64,1,1,0,0,1-.4-.33c.32-.56,1.44-.85,1.7-.22,1.26-1.34,3.18-.45,4.73-.3a43.33,43.33,0,0,0,5.76.29,14.34,14.34,0,0,1,2.07-.29c1.21.07,2.4.85,3.62.45,0,.14,0,.29,0,.44s-.34.07-.5.13l-.09.61C166.69,84.37,166.85,83.88,166.88,83.58Z"></path><path class="cls-1" d="M67.8,120.59c.71.74-.81,2.44-1.17,3.12-.48.91-.89,1.87-1.4,2.77a.85.85,0,0,1-.76,0c-.38-.09-3.81-1.41-4.06-1.57s-.26-.1-.33-.25a23.76,23.76,0,0,1,.51-6.3c.29-.22,1.82.43,2.28.55C63.74,119.17,67.3,120.06,67.8,120.59Z"></path><path class="cls-1" d="M156.39,86.83c-.86,0-.17,1.73-.63,2l-1.89.55c.26.79.49.11.75,0a1.2,1.2,0,0,1,1.29.63l.16,3.5-.22.23c-.48,0-1.17-.26-1.24.46l1,.15c0,.59-1,1-.37,1.47l1-.59c-.07.45.23,2.1-.37,2.17l-2.2-.26c-.42-.15-.45-1.84-.38-2.27.1-.61,1.67-1.57-.15-1.57a4,4,0,0,1,.14-2.73l-.6-.29c-.14-.74.47-.52.75-1l-.82-.45a10.1,10.1,0,0,0,.08-1.25c-.09-.46-1.32-1.8-.22-2a16.27,16.27,0,0,1,2.52,0c.56,0,1.09.26,1.62.3.88.07,4.09-.49,3.09,1-.14.23-1.45,1.81-1.61,1.94a1,1,0,0,1-.85.27C156.12,89,156.74,87.58,156.39,86.83Z"></path><path class="cls-1" d="M164.81,120.11c-.12.19-3.72.3-4-.06l-.88-5.35c0-1,1.95-.64,2.75-.65s1.48-.39,2.13.22Z"></path><path class="cls-1" d="M188.47,103.62c.11-.37,1.38-.2,1.75-.21l1.57,5c.65-.85,1.07-4.33,1.62-4.89a2,2,0,0,1,1.64,0l0,6.27-.22.22-.95,0v-4.88l-1.55,4.74-1.12,0L189.65,105v4.81a.81.81,0,0,1-1.18,0Z"></path><path class="cls-1" d="M167.77,114.34h2.29a2.36,2.36,0,0,1,.44.45c.38.83-.89,4.35-.68,5.52-.13.42-1.52.24-1.91.18l-.14-.31C167.93,118.23,167.36,116.27,167.77,114.34Z"></path><path class="cls-1" d="M164.79,93.47l-3.38.31-.23-4a4.33,4.33,0,0,1,2.15-.06c.15.09.21.46.37.48s.62-.41,1-.2C165.28,90.38,164.62,92.75,164.79,93.47Z"></path><path class="cls-1" d="M160.23,93.27c-.2.7-2.43.88-2.9.53a1.58,1.58,0,0,1-.32-.72,29.14,29.14,0,0,1-.34-2.92c0-.21,0-.41.25-.5,1.08.49,2.37-.38,3.31.2Z"></path><path class="cls-1" d="M187.87,103.4v1c-.14.15-1.94-.25-2.21.22v5.4l-.94,0-.25-.2v-5.4H182.4v-1Z"></path><path class="cls-1" d="M174.13,90.09c0,.58,0,3.07-.45,3.33-.18.11-2.75.37-3-.15V90.75a4.12,4.12,0,0,1,.66-.66Z"></path><path class="cls-1" d="M164,86.09a8.11,8.11,0,0,0,.88.31c.69.15.12,2.1-.14,2.36s-3,.06-3.6.12a4.45,4.45,0,0,1-.18-1.67c0-.22-.49-1.12-.06-1.12A22.89,22.89,0,0,1,164,86.09Zm-.22.89c-.38-.19-1.19.78-1.18,1C162.62,88.56,164.11,87.31,163.78,87Z"></path><path class="cls-1" d="M166,93.49V90.16l.36-.22c.93.15,3.58-.81,3.49.81,0,.61-.89.74-1.34,1.19C167.69,92.74,167.67,94.16,166,93.49Z"></path><path class="cls-1" d="M175.23,93.49c-.34-.11-.28-2.66-.11-3.07,0-.11.12-.26.25-.28l2.76.34c.12.46-.29,3-.68,3Z"></path><path class="cls-1" d="M169.1,88.9v-.44a5.57,5.57,0,0,1-1.57.58,6.17,6.17,0,0,1-1.48-.27c-.35-.27-.23-1.91,0-2.24s1.31,0,1.77,0c.64,0,1.24-.33,1.79,0,.39.31.16,1.63.19,2.14l-.22.23Z"></path><path class="cls-1" d="M166,94.89l.25-.19c.73,0,2.1-.55,2.71-.1v1h.59l-.14,1.56c-.82.36-1.7,0-2.45.06a2,2,0,0,0-.59.26c-.07,0-.36-.3-.36-.33Z"></path><path class="cls-1" d="M160.53,97.26c-.18.57-2.57-.11-3.11.07l.74-1.47-1,.21.15-1.55c.66.24,3.26-.59,3.26.37Z"></path><path class="cls-1" d="M169.25,100.81c0,.07-.16.35-.25.37l-3-.15V98.59l.22-.22H169l.22.22C169.17,99.28,169.35,100.16,169.25,100.81Zm-1.33-.81c-.18-.2-.63.38-.45.59S168.11,100.2,167.92,100Z"></path><path class="cls-1" d="M163.31,94.41c.69,0,1.87.24,1.59,1.15a11.13,11.13,0,0,1-1.72,1.84,1.07,1.07,0,0,1-1.58-.48C161,95,161.28,94.47,163.31,94.41Z"></path><path class="cls-1" d="M159.85,100.65a1.49,1.49,0,0,1-1.92.39,4.2,4.2,0,0,1-.36-2.75C159.47,97.69,162.06,98.56,159.85,100.65Z"></path><path class="cls-1" d="M156.34,100.84a1.9,1.9,0,0,1-2.17,0,8.78,8.78,0,0,1-.44-2.73,3.56,3.56,0,0,1,2.58.44A2.92,2.92,0,0,1,156.34,100.84Z"></path><path class="cls-1" d="M173.37,97.17l-2.51,0-.06-2.3c.85-.8,1.9-.2,2.89-.38C174,94.69,173.52,96.7,173.37,97.17Zm-1.17-1.61c-.33-.34-.92.67-.73,1C171.9,96.68,172.41,95.77,172.2,95.56Z"></path><path class="cls-1" d="M163.14,98.4c.3-.07,1.31-.12,1.46.11.11.54.43,2.26-.08,2.6-.12.08-2.58.18-2.74-.23C161.37,100.19,162.53,98.54,163.14,98.4Z"></path><path class="cls-1" d="M178.39,89.47l-2.64-.27.15-.74-.57-.17V87.15a6.52,6.52,0,0,1,3,0C178.73,87.41,178.6,89,178.39,89.47Z"></path><path class="cls-1" d="M174.15,101.16c-.27-.16.14-2.27.34-2.65a4.19,4.19,0,0,1,2.38,0c-.08.56-.21,2.4-.59,2.68S174.76,101,174.15,101.16Z"></path><path class="cls-1" d="M170.58,101.18l.74-.82-.23-.37-.81.3a3,3,0,0,1,.37-1.92H173l.2.24a4.21,4.21,0,0,1-.5,2.57Zm1.92-2.37c-.09-.08-.44.13-.44.22C172.06,99.44,172.72,99,172.5,98.81Z"></path><path class="cls-1" d="M160.45,102.07c.5.14.33,1.31.2,1.67s-.46.22-.64.4,0,.55-.44.6c-2.22.28-1.58-1.08-1.85-2.67C158.44,102.2,159.82,101.89,160.45,102.07Z"></path><path class="cls-1" d="M174.87,97.19l.44-1.26-.58-.31.14-1.24c.21,0,.42.1.63.09.45,0,1.84-.34,2,.15s-.1,2.57-.49,2.57Z"></path><path class="cls-1" d="M168.51,102.07l-.15,1,.74-.29c0,1-.1,2.11-1.37,1.74-.6-.17-.18-.78-.26-.86-.57-.17-.57.51-.88.67-1.46.73-.83-2.29-.37-2.29Z"></path><path class="cls-1" d="M181.36,90.68c-.12,1.56-.38,3.14-2.37,2.74-.36-.25,0-2.36.15-2.83C179.51,90.11,180.81,90.68,181.36,90.68Z"></path><path class="cls-1" d="M154.34,103.27c.48,0,1-.7.28-.76l-.45.74a1.25,1.25,0,0,1,.15-1.41c.49-.08,1.91-.26,2.14.22a7.43,7.43,0,0,1,.2,1.52c-.13,1.1-1.26,1.21-2.13.87Z"></path><path class="cls-1" d="M164.5,104.41h-.71c.05-1-.79,0-1.16.12-1.48.45-.95-1.81-.14-2.21C164.56,101.31,165,102.69,164.5,104.41Z"></path><path class="cls-1" d="M152.82,98.83l0,1.91a2,2,0,0,1-1.57.23,6.6,6.6,0,0,1-.37-3.2c.2-.27.91-.14,1.19,0C152.46,98.11,152,98.86,152.82,98.83Z"></path><path class="cls-1" d="M181.78,89.46c-.26.37-1.86,0-2.34,0l-.08-1.87a3.88,3.88,0,0,1,2.24,0C182,87.87,182,89.11,181.78,89.46Z"></path><path class="cls-1" d="M162.11,105.65a9,9,0,0,1,2.27,0l.07,1.72c-.6.17-2,.41-2.53,0C161.57,107.11,161.55,105.81,162.11,105.65Z"></path><path class="cls-1" d="M179,94.4c.29-.08,1.39-.14,1.51.22-.14,1.1-.17,3.1-1.81,2.54C177.94,96.91,178.45,94.56,179,94.4Z"></path><path class="cls-1" d="M168.8,106.35c-1-.48-1.49,1-2.17,1.47-1.38.26-1.19-2.13-.53-2.32a8.9,8.9,0,0,1,2.46.14C168.87,105.73,168.81,106.08,168.8,106.35Z"></path><path class="cls-1" d="M173.54,87.28l1-.15c0,.47.16,1.73-.29,2-.27.15-2.08.16-2.22-.15.6-.25,1.21-.67,1.18-1.41-1,.28-.92,1.46-2,1.34-.86-.09-.54-1.53-.38-2.16l2.44,0Z"></path><path class="cls-1" d="M176.2,102.81c-.15.43-.16,1.35-.51,1.63s-1.89.48-1.86.07l.59-.74-.74-.08.14-1.26a2.9,2.9,0,0,1,1.49,0C175.6,102.62,175.41,103.11,176.2,102.81Z"></path><path class="cls-1" d="M154.72,105.35c2.73-.82,3.3,2.5.26,2.06-.41-.34-.14-.92.07-1.28l-.73-.29C154.28,105.64,154.55,105.4,154.72,105.35Z"></path><path class="cls-1" d="M171.76,102.36l-.44,1.33,1.18-.88-.13,1.56c-.3.38-1.75.21-2.24.15C169.66,103.29,170.31,101.79,171.76,102.36Zm-.59,1.33c-.15-.15-.59.29-.44.45S171.32,103.85,171.17,103.69Z"></path><path class="cls-1" d="M160.64,105.8c.34.27-.48,1.56-.7,1.66a2.13,2.13,0,0,1-1.75-.24l-.18-1.46C158.59,105.64,160.19,105.45,160.64,105.8Z"></path><path class="cls-1" d="M172,105.79l.17.56c-.82-.08-.86,0-1.17.67.24.39.54,0,.88.08l-.14.67-2-.07C169.32,105.35,170.12,105.57,172,105.79Z"></path><path class="cls-1" d="M175.46,105.76a10.56,10.56,0,0,1,0,1.38c-.24,1-1.05.69-.71-.34-.85.27-.55,1.38-1.71.74l.38-1.78Z"></path><path class="cls-1" d="M178.21,98.39l.88.12a5.28,5.28,0,0,0,.08,1.26c0,.67-.54,2.36-1.43,1.56C177.36,101,177.93,98.49,178.21,98.39Z"></path><path class="cls-1" d="M152.83,101.77c0,.46.81,2.52.21,2.67-.86,0-1.2.13-1.43-.77s0-.64.26-1.17S151.83,101.71,152.83,101.77Z"></path><path class="cls-1" d="M98.81,174.69c.36-.08,2.58,1.44,1.78,2.08C100.07,177.19,97.85,174.88,98.81,174.69Z"></path><path class="cls-1" d="M153.25,105.51c.27.32.74,2.25-.19,2.29C152,107.46,152.29,104.37,153.25,105.51Z"></path><path class="cls-1" d="M92.38,120.55c.13,1.25-.54,2.23-1.86,1.64C90.08,121.58,92,120.79,92.38,120.55Z"></path><path class="cls-1" d="M169.51,93.45c-.26.27-1.41.31-1.3-.18L169.62,92C170,92.08,169.65,93.31,169.51,93.45Z"></path><path class="cls-1" d="M177.67,104.43c-.92-.1-.73-2.08.08-2.07C178.83,102.36,177.38,103.87,177.67,104.43Z"></path><path class="cls-1" d="M94.77,129.1s-.33-.36-.36-.4c-.5-.64,1.3-1.5,1.16-.16C95.46,128.82,95.12,129.3,94.77,129.1Z"></path><path class="cls-1" d="M158.9,89.2c-.19-.21.7-1.54,1-1.48.26.22.51.74.31,1Z"></path><path class="cls-1" d="M93.42,124.1l-.23-.59-1.11.74c0-.72,1.12-.76,1-1.48A.69.69,0,0,1,93.42,124.1Z"></path><path class="cls-1" d="M94.85,121c.82-.2.93,1.62-.11,1.1A.62.62,0,0,1,94.85,121Z"></path><path class="cls-1" d="M95.46,131.52c.33.54-.22,1.35-.8.88C93.87,131.76,95.18,131.06,95.46,131.52Z"></path><path class="cls-1" d="M93.42,130.76l-.3-.44a.61.61,0,0,1-.74.59l.52-1,.36.3v-.45l.56.39Z"></path><path class="cls-1" d="M95.19,134.75c-.06.52,0,1.47-.74,1.33l.06-1.19Z"></path><path class="cls-1" d="M94.89,124.4c.49,1.14.27,1.92-.7.67C94.22,124.86,94.67,124.23,94.89,124.4Z"></path><path class="cls-1" d="M93.56,136.53a1.78,1.78,0,0,1-.25.86c-.08.17.06.39-.26.32l-.51-.64A1,1,0,0,1,93.56,136.53Z"></path><path class="cls-1" d="M168.66,106.8l-.19,1a1.24,1.24,0,0,1-1,0C167.42,107.77,168.5,106.62,168.66,106.8Z"></path><path class="cls-1" d="M97,167.59c.17.15-.69,1.08-1,.88l.15-1Z"></path><path class="cls-1" d="M93.34,126.33c.27,0,.36,1,0,1.17l-.51-.79Z"></path><path class="cls-1" d="M176.64,107.09c0-.25-.15-1.43.37-1.33C177.51,106.17,177.09,106.87,176.64,107.09Z"></path><path class="cls-1" d="M94.89,148.51v1.18l-.59-.15C94.52,149.18,94.31,148.48,94.89,148.51Z"></path><path class="cls-1" d="M157.57,109.31l-.09-.58c.22-.72.55,0,.68.36Z"></path><path class="cls-1" d="M94.45,139.19c-.62.09-.26-1,.14-1Z"></path><polygon class="cls-1" points="95.78 157.53 96.28 157.55 96.52 157.9 96.15 158.12 95.78 157.75 95.78 157.53"></polygon><path class="cls-1" d="M164.79,97.31s-.33.11-.42.17c-.06-.34.12-.53.37-.74C164.88,96.8,164.84,97.22,164.79,97.31Z"></path><path class="cls-1" d="M94.15,132.53s0,.21-.07.3C93.54,133.5,93.62,132.06,94.15,132.53Z"></path><path class="cls-1" d="M96.08,130.61v-.74h.14C96.23,130.19,96.48,130.5,96.08,130.61Z"></path><path class="cls-1" d="M81,62.28c0,.36,0,.75,0,1.11.19,1.47.46,3,.59,4.44.1,1.06-.25,2.21.37,3.17,1.05,1.61,5.59,4.35,7.41,5.16.63.29,1.54.43,2.08.73.17.09.25,0,.19.33-.48-.09-.93.31-1.37.27-.12,0-1.93-.6-2.14-.68a15.59,15.59,0,0,1-2.6-1.54c-.66-.47-2.9-2.55-3.43-2.64-.26,0-.32.22-.33.41a6.71,6.71,0,0,0,.43,2.31c.25.44.88.61.72,1.28-1.77-.15-3.9-1.71-4.14-3.55-.26-.2-1.41,1.34-1.92,1L77.15,73c1,.08,1-.89,1.85-1a3.59,3.59,0,0,0,1.55,2.16c.11.12.25-.08.28-.18a24.83,24.83,0,0,0-.16-2.9c-.11-.64-.91-1.64-.86-2.1s.56-.5.6-.9S80,66.3,80,65.61a9.35,9.35,0,0,1,.68-3.14C80.76,62.3,80.66,62.22,81,62.28Z"></path><path class="cls-1" d="M75.63,74.43c.69-.2,1.49.49,1.16,1.16-.2.41-1.19.49-1.55.82s-.5,1.18-.75,1.33c-.45.27-1,.13-1-.44-.14-1.31,1-.83,1.41-1.26S75,74.63,75.63,74.43Z"></path><path class="cls-1" d="M79.36,58.28l.31-.29c0,1.31-2,2.08-2.67,3-.54.77-.17,1.25-1.47,1.41a2.92,2.92,0,0,1,.23-1.17c.26-.47.89-.46,1-.75s0-.7.13-.9,2.27-.23,1.86-1.77Z"></path><path class="cls-1" d="M79.37,61.25c-.09.54.38.06.44.14.24.34-.91,1-1.18,1.41s-.26.72-.51,1-1.08.43-1.56,1.1c-.36.5-.38,1.37-1.25,1.25-.36-.09.08-1.09.21-1.26s.68-.29,1-.51a24.74,24.74,0,0,0,1.84-1.85c.4-.38.91-.39.74-1.18Z"></path><path class="cls-1" d="M77.88,52.39c.64,1.36-.59,1.43-1,2-.2.25-.15.61-.39.83a5,5,0,0,1-1.38.58l.78-1.59c.22-.2.92-.12,1.07-.47S76.55,52.22,77.88,52.39Z"></path><path class="cls-1" d="M75.23,62.73c-.24.29-.29.94-.52,1.18-.37.39-1.61.27-1.55,1.48-.48.15-.79-.45-.64-.85s.83-.25,1-.63,0-.72.14-1Z"></path><path class="cls-1" d="M78.15,77.63c-1,.43-1.73,0-1.27-1.13.63.36,1.72-.75,1.83-.76.58,0-.22.84-.26.93A8.2,8.2,0,0,0,78.15,77.63Z"></path><path class="cls-1" d="M79.22,68.64c-.06.89-.84,1.22-1.33,1.71-.32.33.07.7-1,.51l.6-1.33C78.2,69.92,78.42,68.52,79.22,68.64Z"></path><path class="cls-1" d="M76.71,71c.4.75-.58,2-1.15,1.44S76.09,71,76.71,71Z"></path><path class="cls-1" d="M74.19,55.77c.38.89.09,1.6-.88,1.78C73.57,56.86,73.2,55.8,74.19,55.77Z"></path><path class="cls-1" d="M78.23,66.47c-.25.22-.19.77-.63.69l.13-.8a1.87,1.87,0,0,0,1.42-1.71C79.88,65.71,78.7,66,78.23,66.47Z"></path><polygon class="cls-1" points="79.95 50.91 79.83 51.72 78.48 52.37 79.51 50.81 79.95 50.91"></polygon><path class="cls-1" d="M101.1,67.46c-.24-.26,1.26-1.74,1.63-1.78C103,66,101.3,67.66,101.1,67.46Z"></path><polygon class="cls-1" points="79.96 54.44 79.08 55.33 79.22 54.15 79.96 54.44"></polygon><path class="cls-1" d="M74.49,67.16a.62.62,0,0,1-.74-.52C73.65,65.69,74.69,66.48,74.49,67.16Z"></path><path class="cls-1" d="M103.17,68.49c.27.27-.68,1.15-1,1C102.23,69.33,102.84,68.17,103.17,68.49Z"></path><path class="cls-1" d="M99.47,65.53l1-1C100.52,65.13,100.14,65.65,99.47,65.53Z"></path><polygon class="cls-1" points="92.53 75.15 91.79 75.15 92.02 74.71 92.3 74.71 92.53 75.15"></polygon><path class="cls-1" d="M80.85,50c.16.15-.56.82-.74.88C79.94,50.57,80.67,49.83,80.85,50Z"></path><path class="cls-1" d="M101,67.61v.21a.73.73,0,0,1-.74.38C100.07,67.89,100.85,67.5,101,67.61Z"></path><path class="cls-1" d="M97.7,63.91c.1-.38.46-.78.74-.37A.75.75,0,0,1,97.7,63.91Z"></path><path class="cls-1" d="M96.37,61.84c-.14-.32.7-.78.74-.74C97.25,61.42,96.41,61.88,96.37,61.84Z"></path><rect class="cls-1" x="80.55" y="48.97" width="0.29" height="0.74"></rect><path class="cls-1" d="M78.93,43.94l-.15.59h-.3C78.43,44.18,78.55,43.91,78.93,43.94Z"></path><path class="cls-1" d="M96.22,62v.21l-.44.38C95.72,62.22,95.85,62,96.22,62Z"></path><path class="cls-1" d="M97.7,64.06l-.15.44h-.29A.37.37,0,0,1,97.7,64.06Z"></path><path class="cls-1" d="M100.66,98.52c-.16-.17.51-1.38.73-1.57s.63-.24.89-.44.68-.71,1-1c.87-.76,1.71-1.27.5.23.24,1.05-.58.53-1,1s-.11,1-.35,1.26Z"></path><path class="cls-1" d="M86.24,112.17c.68,0,.94,1.25.43,1.42C85.6,113.66,85.06,112.57,86.24,112.17Z"></path><path class="cls-1" d="M93.93,115.38c.39,0-.05,1.41-.15,1.62s-.76.06-.89-.14C92.5,116.23,93.56,115.73,93.93,115.38Z"></path><path class="cls-1" d="M89.57,109.76c.21.2-.78,1.33-1.18,1.18A1.12,1.12,0,0,1,89.57,109.76Z"></path><path class="cls-1" d="M82.33,103.25l.15-.89C83.57,102.41,83.3,103.36,82.33,103.25Z"></path><path class="cls-1" d="M106.86,95.56a.91.91,0,0,1-.88,1C105.8,96.42,106.66,95.34,106.86,95.56Z"></path><path class="cls-1" d="M91.64,112c-.49.12-.76-1.17-.37-1.17Z"></path><path class="cls-1" d="M89.87,106.8c-.33.26-.63-.9-.74-1l.67.14Z"></path><path class="cls-1" d="M90.9,108.43c.07.8-1.06,1.15-.67.13Z"></path><path class="cls-1" d="M86.91,105.47v-.3l.37-.14.22.22A.54.54,0,0,1,86.91,105.47Z"></path><polygon class="cls-1" points="86.76 98.81 86.76 99.4 86.62 99.4 86.47 98.81 86.76 98.81"></polygon><polygon class="cls-1" points="87.65 101.77 87.5 101.18 87.94 101.55 87.65 101.77"></polygon><path class="cls-1" d="M102.87,19.1a4.27,4.27,0,0,1-.6,1.53c-.6.77-2.25-.25-2.5-1,0-.29.06-.19.19-.26A4.18,4.18,0,0,1,102.87,19.1Z"></path><path class="cls-1" d="M156.21,114.67c.57-.06.9-.06,1.17.53.12,1.75.86,3.46.71,5.21-2.39,1.35-1.94-.51-2.34-2.1-.17-.7-.95-2.68-.62-3.23C155.24,114.89,156,114.7,156.21,114.67Z"></path><path class="cls-1" d="M120.32,79l-.17.42-.42,0v-.22A.5.5,0,0,1,120.32,79Z"></path><path class="cls-1" d="M128.45,81.06c0-.26.2-.48.44-.59C128.94,80.74,128.69,81,128.45,81.06Z"></path><path class="cls-1" d="M106.87,75.15c.17.15-1.17,1.5-1.33,1.33A1.34,1.34,0,0,1,106.87,75.15Z"></path><path class="cls-1" d="M108.2,73.82c.18.33-.58,1.06-.74.88C107.42,74.19,107.66,73.81,108.2,73.82Z"></path><path class="cls-1" d="M106.42,72c.19.19-.39,1-.74.89C105.59,72.67,106.1,71.72,106.42,72Z"></path><path class="cls-1" d="M105.24,73.37a1.15,1.15,0,0,1-.39.57C104.13,74.48,104.44,73.23,105.24,73.37Z"></path><path class="cls-1" d="M76.56,84.91l0,1.16a3.18,3.18,0,0,0-1.17.53c-.4.38-.5,1.21-.73,1.34-.8.48-1.31-.39-1.12-1.12.18-.24.78-.06,1.12-.21C75.36,86.3,75.29,84.64,76.56,84.91Z"></path><path class="cls-1" d="M77,88c-.26,1.3-.63,1.67-1.93,1.92C74.83,88.31,75.8,88.4,77,88Z"></path><path class="cls-1" d="M76.71,84.91a1.72,1.72,0,0,1,1.18-1.41C79.15,83.19,76.85,85.07,76.71,84.91Z"></path><path class="cls-1" d="M78.33,86.69c.26.25-.87,1.42-1.18,1.18C77.44,87.42,77.67,86.6,78.33,86.69Z"></path><polygon class="cls-1" points="74.94 90.09 74.49 90.97 74.41 90.39 74.94 90.09"></polygon><path class="cls-1" d="M80,85.06c.15.15-.29.59-.44.44S79.81,84.91,80,85.06Z"></path><path class="cls-1" d="M54.09,154.72c.41.78-1.2,2-1.34,1.1C52.65,155.13,53.48,154.63,54.09,154.72Z"></path><path class="cls-1" d="M54.52,155.77c.26.32-.39,1.18-.87,1l.44-1.18Z"></path><path class="cls-1" d="M83.21,79.73c.23.23-.44.63-.44.23C82.77,79.86,83.13,79.65,83.21,79.73Z"></path><path class="cls-1" d="M74.77,79.9c.62,1.17-1.28,1.87-1.31.63C73.44,79.79,74.2,79.81,74.77,79.9Z"></path></g><path class="cls-1" d="M39.27,240.19l-3.62-.69A13.39,13.39,0,0,1,32,237.82c-.15-.17-.16-.44-.2-.48s-.58,0-.86-.46c-.12-.19-.08-.41-.15-.53s-.32-.14-.49-.44a4.22,4.22,0,0,1,.71-4.59c1.38-1.35,4.4-1.66,6.14-1a1.42,1.42,0,0,1,.91.84c.14.07.63-.23.85.4s-.43.51-.85.84c-.66.52-1,1.34-1.62,1.88l0,.17c.52.19.26,1,.45,1.48a5.77,5.77,0,0,0,.71.91c1.89,1.87,6.17,1.89,7.37-.75a8.65,8.65,0,0,0,.43-1.68c0-.07-.4-1.24-.44-1.31a7,7,0,0,0-1.44-1.44,4.5,4.5,0,0,0-1.36-.7l.12-.62c-.51.41-1.29.43-1.44-.26a9.53,9.53,0,0,1-3.17-.68,3.94,3.94,0,0,1-1-.56c-.33-.08-.75.1-1.14-.09-.21-.1-.26-.4-.35-.41s-.28.15-.67.07c-.58-.11-.49-.56-.57-.57-.84.32-1-.47-1.21-.59s-.39,0-.59-.09-.31-.55-.41-.66-.45,0-.65-.28-.13-.52-.27-.74-.24-.11-.34-.29a7.43,7.43,0,0,1-.25-4.07,1.73,1.73,0,0,1,.54-.71l0-.17-.24-.08A7.45,7.45,0,0,1,32,217.83a10.28,10.28,0,0,1,6.12-2.38c3.82,0,7.8,3.37,11.3.44.37-.13.48,1.11.5,1.38.15,2.9-1.56,5.85-4.79,5.3a5.12,5.12,0,0,1-2.15-1.1c-.19-.25-.13-.53-.2-.61s-.45-.1-.67-.39a5.55,5.55,0,0,0-.62-.88c-1.14-1.27-2.05-2.53-4-2.26-.85.11-1.58,1.59-1.42,2.43s1.84,1.88,2.53,2.22c4.66,2.29,15.38,3.13,13.88,10.72a9.9,9.9,0,0,1-1.12,3,3.71,3.71,0,0,1-.5.76c-.19.14-.45.07-.54.14s-.11.49-.27.67-1.76,1.37-2,1.5a11.1,11.1,0,0,1-4.12,1.12c.62-1,1.82-1.68,2.49-2.51,0-.06.66-.88.19-.68a15.35,15.35,0,0,0-1.81,1.68c-.63.65-1,1.55-2,1.82Zm3.87-21.61c.29,0,.45-.1.62-.31C43.53,217.93,43.22,218.26,43.14,218.58Zm-.5.63h-.36l-.14.36C42.27,219.68,42.6,219.37,42.64,219.21Zm-10.36,1.25c-.16-.18-.87.68-.87.87C31.63,221.51,32.42,220.81,32.28,220.46ZM31,221.83c-.4-.35-.56.67-.12.31C31,222.07,31.1,221.89,31,221.83Zm.75,1c-.8.33-.49.7-.12.44.17-.11.08-.34.12-.44.26-.11.57,0,.7-.49C32.7,221.53,32,222.24,31.78,222.83Zm1.62,2c-.14-.14-1.39,1.11-1.24,1.25a.48.48,0,0,0,.5-.19C32.74,225.82,33.48,224.9,33.4,224.83Zm4.11,3.36,0-.36a.7.7,0,0,0-.44.49Zm8.5,2c-.29-.1-.73.62-.62.75A.83.83,0,0,0,46,230.2Zm.25,1.62c.19.2.57-.25.62-.44C46.6,230.93,46.13,231.68,46.26,231.82Zm3.62.13c.25-.07.28-.27.25-.5C49.88,231.51,49.85,231.71,49.88,232Zm-.5,2.12c-.31,0-.42.2-.37.5l.37-.32Zm-2.5.75c-.67.08-1,.78-1.37,1.25C45.9,236.25,47,234.88,46.88,234.82Zm.38,1.5c.3-.23,1.32-.72.81-1.12A1.36,1.36,0,0,0,47.26,236.32Zm-14.6,0c-.15-.14-.91.58-.75.87C32.36,237.19,32.48,236.63,32.66,236.32Zm16.1.37c-.31-.16-1.14.74-1,.87A2.34,2.34,0,0,0,48.76,236.69Zm-6.12,2.12c.22.06.77-.31.62-.5Zm4.37-.37c-.23,0-.43,0-.5.25C46.74,238.72,46.94,238.69,47,238.44Zm-4.49.75c-.09-.08-.5.06-.5.19C42,239.75,42.75,239.41,42.52,239.19Z"></path><path class="cls-1" d="M62.24,235c.2,1.62,1.84,2.72,3.12,3.51l-.75,1.25-.28,0c-2-.91-5-1.41-7.15-.61-.32.12-1,.65-1.23.61s-.72-.66-.45-1h-.63c0-.2.1-.33.2-.49.65-1,2-2.59,2.8-3.57.19-.23.54-.34.66-.6s-.13-.27-.08-.55a7,7,0,0,1,1-2.33L59,230.15l.87-1.14c-.43.08-.81.86-1.13,1s-1.29.1-1.75.31l1.38-1.43c0-.15-.28-.06-.38,0s-1.09,1-1.2,1.1c-.62.68,0,.51,0,.77l-.55.92c-2.19-.94-2-4.18-.7-5.79,1.15-1.42,2.6-1.49,4.31-1.44.29,0,1,.28,1.19.05,1-2.57,1.18-5.33-.6-7.6l.72-1a12.6,12.6,0,0,1,2.71.53,14.45,14.45,0,0,0,2.71.15l.07.38c.32.09.28-.33.46-.38.51-.13,2.1,0,2.83-.13,1.18-.15,2.31-.62,3.44-.68,1.51,1.14.53,1.26.12,2.49-.57,1.77.33,5.13.79,7,.77,3,2.26,6.21,2.94,9.05.06.29,0,.64,0,.84s.3.07.44.2c.32.3,1,1.65,1.44,2.18a9,9,0,0,0,1,.93c1.07-.53,1.5-1.76,2.17-2.55.42-.5,1.17-.62,1-1.44l-.51-.06c.17-.57.17-1.19.62-1.63.09-.24-.25-.1-.25-.36,0-.43.13-1.4.51-1.63v-.18c-.73-.13-.24-1.06-.24-1.57a10,10,0,0,1-.14-1c0-.59.58-.84.76-1.37l-.47,0-.27-.19a1.55,1.55,0,0,1,.08-.88c.17-.41.86-.45.59-.91l-.56.38c0-.37-.07-.84,0-1.19s.71-.58.87-1c.22-.58-.76.42-.87.31-.48-1.11.42-1.26.62-2.12l-.87.63a7.32,7.32,0,0,0-1.25-3.19c-.87-1.1-1.78-1-.73-2.66.17-.11,3.33.56,3.92.6a33.61,33.61,0,0,0,7.34-.73c.34.08.63,1.07.71,1.41s-.76.85-1,1.15c-1.72,2.32-1.59,8.32-1.53,11.23a23.8,23.8,0,0,0,.38,3.62c.1.64.11,1.75.28,2.34.07.25.61.61.58,1-.39.48-.87.87-1.3,1.32-.15.17-.77,1.07-.83,1.1a3.68,3.68,0,0,1-1.15,0c-.18-.06-.16-.35-.27-.37-.26,0-.77.49-1.55.2-.34-.12,0-.18,0-.22s1.32-1.21.6-1.21a5.85,5.85,0,0,1-1.62,1.56c-.58.18-1-.09-1.42,0a12.91,12.91,0,0,1-2,.6l.75-1.06c.09-.28-.84.46-.94.55s-.47.84-.87.84-.81-1.15-1.12-1.08l-.58,1.1c-1.32-.06-2.58-.7-3.93-.84-.61-.06-1.24,0-1.85,0l-.07-.39c-.2,0-.06.19-.22.25a8.28,8.28,0,0,1-1.65.25c.09-.6,1.18-.72.93-1.49-.63.23-1,1.3-1.52,1.59a5.89,5.89,0,0,1-2.47.52,2.55,2.55,0,0,1-1.06-1.05,7.56,7.56,0,0,1,.89-1.36c.21-.34.32-.87.5-1.13s1.59-1.19.11-.57a7.45,7.45,0,0,1,0-1.16c.07-.3.36-.42.35-.72l-.5.13c0-.41-.23-.71-.06-1.12.08-.19.94-1,.81-1.13l-.94.75-.19-.37h-.18c-1.45,1.66-2.61,2.31-4.83,1.58a7.78,7.78,0,0,0-1.47-.59C62.29,233.6,62.16,234.37,62.24,235ZM68,219.08c-.13-.12-.5.25-.38.38S68.1,219.21,68,219.08Zm-.75.75c-.17-.16-1.59,1.27-.94,1.25Zm-1.12,2.5c-.18-.55-.52-2.14-1.19-2.14s-.43.57-.63.9c-.07.13-.35,0-.43.18.37.1.28.39.23.73-.12,1-.88,2.91-.8,3.83.1,1.22,2.11,3.07,2.69,4.18.55.47,1.38-.11,1.81.31.38-.24.07-.61.06-.94a1.72,1.72,0,0,1,.38-1.43h-.49c-.6-1.32.85-1.72,1.36-2.74-.09-.08-.82.52-.93.63s-.46.8-.76.51c-.72-1.34,0-.84.38-1.27a.84.84,0,0,0,.19-.62.64.64,0,0,0-.49.2c-.19.17-.19.59-.39.49-.26-.44-.9-2.21-.68-2.56,0-.08,1-.66.81-.87C66.83,221.52,66.35,222.5,66.11,222.33Zm1.37-1a.48.48,0,0,0,.5-.5Zm17.72.38c-.22-.21-.71.36-.62.62C84.62,222.38,85.39,221.88,85.2,221.71Zm-16.72.5c-.32,0-.43.19-.38.49l.38-.31Zm-1,1a.31.31,0,0,0-.37.38l.37-.13Zm1.87,0c-.46.1-.83.65-1.12,1C68.69,224.1,69.06,223.55,69.35,223.21Zm15,3c.27-.21.72-.5.75-.87C84.81,225.53,84.36,225.83,84.33,226.2ZM68.6,227.57c.08.1,1.43-1.09,1.25-1.49C69.61,226.26,68.38,227.29,68.6,227.57ZM58.37,227a.52.52,0,0,0-.63.5C57.82,227.52,58.57,227.12,58.37,227ZM84,228.32a.94.94,0,0,0,.75-.75ZM57.37,228c-.15-.15-1.2.83-1.12,1.12S57.51,228.09,57.37,228Zm1.87,0c-.91,0-.75,1,0,.18Zm10.36.25-1.06,1-.44.62C68.3,230,69.6,228.53,69.6,228.2Zm5.12.37h-.19l-.44.5C74.32,229.14,74.88,228.73,74.72,228.57Zm9.61,1.25c-.13-.12-.5.25-.38.38S84.45,230,84.33,229.82Zm-28,.88c-.3-.06-.39.28-.5.49.24.05.35-.16.5-.31Zm16.23.12c-.27,0-.5.27-.63.5C72.23,231.35,72.46,231.05,72.6,230.82Zm12.48,0-1.07.87-.43.63c.14.13,1.12-.91,1.25-1.06S85.13,231.06,85.08,230.82Zm0,1.88-1.45,1.11-.17.51c.33.07.27,0,.41-.16C84.3,233.77,84.67,233.14,85.08,232.7Zm-15,.49a.31.31,0,0,0-.37.38l.37-.13Zm6,1.5.25-.75C76.14,234,75.77,234.62,76.09,234.69Zm9.36-.62c-.27-.12-.94.69-.87.75C84.87,235,85.59,234.21,85.45,234.07Zm-14.6.25c-.24,0-.35.16-.5.31v.19h.25Zm19.84,0c-.43-.07-.72.36-.74.75C90.12,235.25,90.64,234.45,90.69,234.32Zm-5.36,1.62c.35.14,1-.64.87-.87A1.65,1.65,0,0,0,85.33,235.94Zm-1.13-.62-.94.49c-.1.36-1.8,2-1.74,2.13s.31,0,.43-.07a9.21,9.21,0,0,0,1.56-1.56C83.75,236,84.23,235.89,84.2,235.32Zm3.5.12c-.09-.09-1,.48-.75.88C87.2,236.32,87.83,235.57,87.7,235.44Zm-12.86.25c-.13-.13-.5.25-.37.38S75,235.82,74.84,235.69Zm-3.74.13a.79.79,0,0,0-.75.87A1,1,0,0,0,71.1,235.82Zm5.36,0c-.25-.12-.59.53-.49.62C76.22,236.56,76.56,235.91,76.46,235.82Zm8.74.37-.5.32v.18l.5-.31Zm5.37,0c-.14-.14-.81.59-.87.75C90,237.1,90.71,236.33,90.57,236.19Zm-2.37.62c.31,0,.42-.19.37-.49l-.37.31Zm-18-.12c-.58,0-.71.62-1,1C69.34,237.8,70.36,237,70.22,236.69Zm.88,1c.13.14,1.07-.75.87-1A1.29,1.29,0,0,0,71.1,237.69Zm14.73-.38c.07.08.37-.1.37-.18C86.2,236.78,85.64,237.13,85.83,237.31ZM62,237.69a.31.31,0,0,0,.37-.37l-.37.12Zm8.36.75c.14.15.77-.48.62-.75C70.74,237.67,70.23,238.32,70.35,238.44Zm-6.74-.63c-.74.33-.35.92-.06.38A.63.63,0,0,0,63.61,237.81Zm5.74,1.63c.29.1.73-.63.62-.75C69.64,238.84,69.28,239,69.35,239.44Z"></path><path class="cls-1" d="M102.05,230.07l.87-.62c.33,1.12-.2,1.42-.74,2.24.57.15.46-.55.87-.49.21,2.77,1,7.35,4.78,6.71,2.76-.47,2.92-5.21,2.37-7.31a7.37,7.37,0,0,0-1.89-3l.38-1.14c.27-.17,4.54.55,5.28.6a12.28,12.28,0,0,0,3.31-.31c.4-.07,1.62-.54,1.87-.38a6.59,6.59,0,0,1,.47.79c.18.66-.33.91-.61,1.45-1.43,2.7-1.21,5.46-.34,8.24,0,.13,1.08,1,1.09,1.42,0,.24-.86,1.68-1.11,1.61-3.17-2.08-7.34-.3-10.81,0a11.63,11.63,0,0,1-8.11-1.86l.2-.49c-.28,0-.35.3-.66.23a16.63,16.63,0,0,1-1.4-1.11c-.36-.57.64-.68.56-1.25-.37-.07-.48.43-.61.54-.33.3-.82-.14-.89-.49s.73-.71.38-.86-.5.62-.86.42a6.55,6.55,0,0,1-.34-.85c-.06-.1-.24-.12-.34-.29a14.77,14.77,0,0,1-1.2-6.89c.07-.46.38-.46.37-.51s-.23-.26-.23-.58a13.18,13.18,0,0,1,1-3.43c1.45-3.17,3.22-5.09,6.64-6.23,3.66-1.21,4.58-.33,8,.28a17.27,17.27,0,0,0,5.74-.05c.85-.21,1.51-1,1.65.4.21,2,0,4.1-1.68,5.43-.66.52-.76.37-1.35.54s-.49.4-1.38.32c-3.37-.3-3.59-2.23-5.38-4.23-1.26-1.41-2.91-1.92-4,0s-1.14,6.3-1.08,8.55a5.07,5.07,0,0,1,.12,1.24C102.87,229.05,101.9,229.91,102.05,230.07Zm-5.37-3.62h-.37v.38Zm0,1.75-.49.31v.19l.49-.32Zm4.37,1.12c.23-.13.53-.36.5-.62C101.32,228.83,101,229.06,101.05,229.32Zm-4.62.88c-.12-.13-.5.25-.37.37S96.56,230.32,96.43,230.2Zm5.12.25c-.13-.14-.7.51-.81.62s-.77.91-.68,1C100.37,232,101.75,230.65,101.55,230.45Zm.63,1.37c-.21-.17-1.88,1.44-1.87,1.56.06.72,1-.67,1.11-.75C101.67,232.35,102.08,232.24,102.18,231.82Zm-4.87,1.12c-.13-.14-.89.62-.75.75C96.94,233.67,97.38,233.38,97.31,232.94Zm4.87.63a.32.32,0,0,0-.38.37h.25Zm-2.5.62-.5.32v.18l.5-.31Zm1.75.13c-.14-.13-.76.48-.62.62A.94.94,0,0,0,101.43,234.32Zm1.25.5c-.32,0-.43.2-.38.5l.36-.14Zm-2.5.87a.51.51,0,0,0-.62.5Zm3.12,2.25c.2-.09.41-.27.37-.5C103.47,237.53,103.26,237.71,103.3,237.94Zm-1.75-.12c-.15-.13-.75.47-.62.62C101,238.36,101.75,238,101.55,237.82Zm3.25.37c-.4-.08-.62.28-.62.62A.94.94,0,0,0,104.8,238.19Zm4.24,1h-.25v.37H109Z"></path><path class="cls-1" d="M145,221.45s.23,0,.38.09.19.67.31.91a8.43,8.43,0,0,1,1.16,3.2c.76,7.18-3.06,13.14-10.42,14.15-1.74.24-5.22.2-6.75-.71-.23-.13-.27-.36-.31-.39s-.3.1-.56,0a9.27,9.27,0,0,1-1.54-.86.66.66,0,0,1,.12-.49c.37-.6,1.61-1.41,2.07-2.05.13-.17.24-.26.18-.5-.71.16-.87.81-1.3,1.25s-1.29,1.31-1.72,1.23c-.72-.14-.4-.54-.22-1-.35-.13-.26.33-.44.37s-1.94-1.59-1.56-2.12c-.51.33-1.17-1.09-1.39-1.54-5.28-10.78,5.8-20.8,16.46-16.47,1.43.59,5.07,3.09,5.58,4.52C145.09,221.21,145,221.42,145,221.45ZM130.39,218c.2-.09.41-.28.37-.5C130.55,217.55,130.34,217.73,130.39,218Zm2,19.46c.7,0,1.31.42,2,.4s2.81-.82,3-1.59c1.32-4.37,1.64-12-.28-16.27-1.36-3-5-3.18-6.24,0-1.17,2.92-1.14,9.3-.64,12.37a7.08,7.08,0,0,1,.31,1.18c0,.28-.26.41-.24.68.83-.19.61.81.51,1.38l.49-.13C131.45,236.22,132.32,236.65,132.4,237.42Zm-2.14-15.71c-.23,0-.41.17-.5.37C130,222.12,130.17,221.91,130.26,221.71Zm-2.75.87c-.13-.13-.5.25-.37.37S127.64,222.71,127.51,222.58Zm1.13.75a.58.58,0,0,0-.63.62Zm1.5.37a.44.44,0,0,0-.5.19v.19h.18Zm-2,7.37c.31-.13.57-.23.5-.62C128.46,230.51,128,230.93,128.14,231.07Zm1.37.38c-.23-.06-.3.13-.44.25-.39.33-1.13,1-1.18,1.49a5.23,5.23,0,0,0,.82-.74c.14-.15.13-.39.21-.47S129.59,231.88,129.51,231.45Zm-4.12,2.37a.51.51,0,0,0,.5-.63A.61.61,0,0,0,125.39,233.82Zm4-.5c-.16-.17-.37.26-.46.35s-.37.11-.29.4C128.74,234.17,129.48,233.43,129.39,233.32Zm-.88.87c-.45-.07-.5.6-.65.72s-1,.11-.84.91C127.32,235.76,128.68,234.37,128.51,234.19Zm-2.74,1c.2-.09.41-.27.37-.5C125.94,234.78,125.73,235,125.77,235.19Zm4.61.75c-.15-.16-1.35,1.13-1.37,1.37C129.2,237.49,130.52,236.08,130.38,235.94Zm8.12,1c-.3-.23-1.24,1-1.38,1.25C137.45,238.33,138.57,237,138.5,236.94Zm0,1.75h-.25l-.13.37A.31.31,0,0,0,138.5,238.69Z"></path><path class="cls-1" d="M153.19,216.38c.63.31.31,0,.84,0a17.72,17.72,0,0,0,3.44-.2c.37-.08,1-.4,1.21-.42.38,0,.7,1,.89,1.32,0,.32-1.22.82-.92,2.29.44,2.19,5,4.77,6.5,6.48.95,1.07,1.25,2.4,2,3.5,0-3.56.36-8.79-2.43-11.49-.87-.84-1.48-.58-.48-2.11a15.34,15.34,0,0,0,7.73,0c1.61,1.12-.26,1.92-1,2.86a9.25,9.25,0,0,0-1.44,4.93,46.71,46.71,0,0,0,.15,10.1c.08.61.53,1.7.29,2.2,0,.1-.76.81-.68.88l.93-.62a3.86,3.86,0,0,0,1.76,1.87l-.82,1.94-.75-.38.37-.69c-.61.47-1,.79-1.79.48-.19-.07-.17-.35-.28-.36s-.58.24-.86.24-.62-.23-.88-.22-.47.28-.77.33-.89,0-1.33.05c-1,.13-2.49,1.23-2.89-.14-.18-.63.07-.4.24-.64s.06-.26.17-.37,1.09-.66,1.21-1c.06-.17-.13-1.06,0-1.44s.85-.64.62-1.32l-.94.75c-.34-.16-.45-.8-.59-1s-.37-.14-.53-.28c-2.4-2.21-5.14-4-7.1-6.76-.55-.76-1-1.61-1.51-2.36-.18.12-.18.24-.2.43-.3,2.9-.32,8,1,10.6a4.28,4.28,0,0,0,2.59,2.22l-.23,1.85c-.2.18-2.34-.7-2.8-.75a15.51,15.51,0,0,0-5.44.76L148,238a4.51,4.51,0,0,0,2.21-2.68c1.13-3.53,1-13.36-.78-16.63a19.24,19.24,0,0,1-1.49-1.63c-.16-.34.35-1,.52-1.38Zm15.26,14.07a.57.57,0,0,0-.62.62Zm-7.24,1.74c.16.16.57-.39.5-.62l-.5.44Zm6.87.38c.17.17.71-.54.62-.75C168.55,231.87,168,232.43,168.08,232.57Zm0,.13c-.23,0-.43,0-.5.24C167.81,233,168,232.94,168.08,232.7Zm1.25.37c-.24,0-.3.13-.44.25s-1.43,1.39-1.31,1.5.3-.13.44-.25S169.49,233.23,169.33,233.07Zm-5.87.5c-.12-.11-.58.27-.5.5S163.54,233.8,163.46,233.57Zm3.62,0c-.14-.14-1.14.85-1,1C166.29,234.56,167.25,233.74,167.08,233.57Zm-2,.12c-.15-.17-.71.52-.62.75S165.23,234,165.08,233.69Zm-.12,2.13c.39-.32.94-.72,1-1.25C165.88,234.48,164.79,235.49,165,235.82Zm2.37-.63a.51.51,0,0,0-.62.5h.18Zm.62,1.13c.17.16.85-.64.75-.88C168.54,235.51,167.81,236.17,168,236.32Zm-3.24-.63c-.28-.28-.72.65-.77.79C163.64,237.29,165.05,236,164.71,235.69Zm2.25,1.62c.31,0,.42-.19.37-.49L167,237Zm-1.63-.24c-.12-.13-.5.24-.37.37S165.46,237.2,165.33,237.07Zm1,.87c.07.07.37-.11.37-.19C166.7,237.41,166.14,237.75,166.33,237.94Zm1.87-.12c-.34-.06-.94.47-.62.74C167.75,238.7,168.34,238.09,168.2,237.82Zm-4.49.87c-.12-.12-.71.39-.62.62S163.85,238.83,163.71,238.69Z"></path><path class="cls-1" d="M84.08,205.22c.22.05.25-.06.35-.21.41-.53.75-1.6,1.13-2.25,1.16-2,2.88-3.57,5.38-2.72,2.29.78,1.83,4.24-.75,3.75-.2-.12.14-.68-.19-1.19-.83-1.26-3.09,0-3.41,1.17.69.84,1.81.91,2.74,1.28a10,10,0,0,0,1.56,4.41c.38.48,1.58,1.1,1,1.63-.3.27-2.16-.14-2.75-.13s-2.35.39-2.68.19c-.8-.48,1-2.17.87-2.31l-.62.19a1.13,1.13,0,0,1,0-1.31l-.49.12c-.27-1-.8-1.56-1.88-1.37.16.37-.16.73-.22,1.09a3.22,3.22,0,0,0,.32,2c.36.63,1.39.93.75,1.63-.61.26-1.21-.3-1.67-.35-.22,0-1.24,0-1.49,0-1,0-2.53,1.06-2.67-.28a3.16,3.16,0,0,0,1.1-1.9,18.55,18.55,0,0,0,0-3.87,11.91,11.91,0,0,1,.26-1.86c0-.07-.21-.07-.25-.16a10.14,10.14,0,0,0-.4-1.45c-.22-.38-.88-.63-.68-1.08.34-.74,1.78-.1,2.39,0l3.12-.36c1,.52.2.74-.13,1.25C84.16,202,84.16,204.11,84.08,205.22Zm-2.87-1.12c-.46,0-.46.37,0,.37Zm.75,1.12c-.13-.13-.5.25-.38.38S82.08,205.35,82,205.22Zm3.12.5-.36,0-.14.35h.36Zm1.37.5c-.29-.05-.45.1-.62.31l.18.19Zm.25,1.37a.44.44,0,0,0,.5-.18l-.19-.19Zm-5.12-.12c-.19-.09-.62.35-.5.5C81.3,207.86,81.63,207.77,81.58,207.47Zm-1,2.75c-.06,0-.6.15-.37.37s.34-.31.37-.37c.28-.17.51-.17.63-.63C80.78,209.57,80.72,210,80.58,210.22Zm3.13.5c.21-.11.55-.2.49-.5C84,210.33,83.65,210.41,83.71,210.72Z"></path><path class="cls-1" d="M104.69,204.08s.28,0,.34.22a2.16,2.16,0,0,1,0,1c-.1.22-.49.3-.43.63l.5-.12a3.53,3.53,0,0,1-.1,1.21c-.08.21-.41.49-.45.65s.12.46,0,.85a6,6,0,0,1-3.35,2.52,5.5,5.5,0,0,1-4.53-.42l.23-.57c-.36.15-.57.51-1,.32-.1,0-1.16-1-1.3-1.2A8.22,8.22,0,0,1,93.38,207l.31-.82-.5-.06a6,6,0,0,1,0-1c.06-.18.33-.31.33-.4s-.23-.2-.22-.48c0-2.29,3.88-4.84,6-4.45.39.07,1.07.21,1.45.3a6.24,6.24,0,0,1,3.47,2.4A2.64,2.64,0,0,1,104.69,204.08Zm-3.76-3.48c-.4-.35-.57.67-.13.31C100.9,200.84,101,200.66,100.93,200.6Zm-.5.5c-.49.14-.93-.31-1.33-.33a1.67,1.67,0,0,0-1.48.95c-.77,1.63-.77,6.64.44,8.06a1.51,1.51,0,0,0,2.6-.52,13,13,0,0,0,.6-1.75c0-.31-.14-.87-.08-1.35,0-.24.26-.46.25-.62s-.2,0-.24-.16c-.29-.84.16-1.39.69-2,.13-.16.47-.28.55-.45s-.09-.27-.26-.13-.8,1-1,.94c-.71-.95.39-1.44.68-2.24-.2-.21-.8.8-1.06.74S100.38,201.36,100.43,201.1Zm2.62,1a.31.31,0,0,0-.37.37h.24Zm.75,1.12a.31.31,0,0,0-.37.38l.37-.13Zm-.87.75c-.18-.18-1.22,1.05-1.13,1.13C102.2,205.26,103.08,204.14,102.93,204Zm-.38,2.25c.12.13.36-.18.44-.25a12.13,12.13,0,0,0,1.43-1.44c.13-.19,0-.31-.06-.31a19.78,19.78,0,0,0-1.65,1.59C102.61,205.91,102.4,206.05,102.55,206.22Zm1,.88a.44.44,0,0,0-.5.18v.19h.19Zm-7.74.5h-.37V208Z"></path><path class="cls-1" d="M110.54,207.09c0,.83,0,2.26.52,2.92.19.26.57.34.67.69l-.19.45c-.45.27-.83-.13-1.19-.18s-1.36-.13-1.74-.13-2.21.55-2.54.35a4.65,4.65,0,0,1-.23-.41,10.48,10.48,0,0,1,.85-1.36c.24-.3.91-.49.67-.95l-.56.37c-.37-1.65,1.13-2.14,1.87-3.31-.13-.2-.28,0-.38.13s-1.22,1.35-1.37,1.18a3.52,3.52,0,0,1,.09-1.21c.1-.22,1.14-1.19,1-1.28l-1,.5a6,6,0,0,1,0-1c.07-.23.4-.3.35-.59h-.49c-.07-.06-.1-1.07-.17-1.28-.18-.6-1.45-1.49-.41-2,.25.07.43.27.68.33,2,.44,4.11-.48,6.2-.33,1.85.13,4.18,1.27,4.06,3.44,0,.37-.19.53-.22.77s.11.35,0,.67a3.17,3.17,0,0,1-1.85,1.79,14.58,14.58,0,0,1-2.28.45Zm1.34-6.22a2,2,0,0,0-1.28,1.23,18.62,18.62,0,0,0-.19,2.32c0,.36.16.8.18,1.18,1.44.59,2.8.09,3-1.56C113.64,202.91,113.56,200.67,111.88,200.87Zm3.9,3c-.22,0-.41.17-.5.37C115.51,204.26,115.69,204.05,115.78,203.85ZM107.92,208a1.68,1.68,0,0,0,1-1Zm1.12.75a.52.52,0,0,0,.5-.63l-.5.44Zm-.62.62c.07.07.37-.1.37-.18C108.79,208.81,108.23,209.15,108.42,209.34Zm1.74.13a.59.59,0,0,0-.62.5C109.93,210.05,110,209.77,110.16,209.47Z"></path><path class="cls-1" d="M119,207.74s-.2,0-.23-.2A4.65,4.65,0,0,1,119,206c0-.14-.21-.33-.23-.59-.12-1.59.32-2.65-.59-4.16-.14-.23-.67-.66-.64-.83.13-.78,1.64-.23,2.17-.2,1.13.07,2.24-.37,3.15-.34,1.18,0,.18,1.07,0,1.46-.92,1.69-.74,6.94.21,8.66.12.22,1.08,1.26.08,1.18a17.27,17.27,0,0,0-3.54-.35c-.5,0-1.61.51-1.93.32l-.22-.48A11.64,11.64,0,0,0,119,207.74Z"></path><path class="cls-1" d="M51.85,206.26s0,.22.09.21.32-.22.62-.26a44.79,44.79,0,0,1,6.13,0c.24,0,.17.26.25.27.25,0,.4-.22.62-.25s.8,0,1.18,0l-.25.62c0,.07.65-.51.75-.55.82-.33,4.32,0,5.41,0a25.1,25.1,0,0,1,2.9-.12c.24,0,.17.26.25.27s.54-.23.86-.26a31.7,31.7,0,0,1,4.07.06l.09.15-.09,1.23c-1.76.09-3.55.07-5.32.06-1.46,0-2.78-.11-4.23-.11-2,0-4.56.33-6.51.12-.28,0-.45-.25-.61-.26s-.59.29-1.13.26c-1-.06-.3-.27-.19-.39s0-.35-.18-.24-.14.28-.28.37a2.45,2.45,0,0,1-1.57.25c-.1,0-.09-.25-.16-.26-.26,0-.94.39-1.61.27l-.13-.39c-.74.58-1.56.34-2.43.38v-1.5C50.73,206.29,51.59,206.11,51.85,206.26Zm12.51.34c-.13-.13-.5.24-.38.37S64.48,206.72,64.36,206.6Zm4.87.62c.31-.13.57-.24.49-.62A.57.57,0,0,0,69.23,207.22Z"></path><path class="cls-1" d="M139.87,206.72c-.49.32-.69.7-1,.86a2.65,2.65,0,0,1-1.34.14c-.09,0-.08-.25-.15-.26-.28,0-1.18.49-1.68.26l.06-.63a2.09,2.09,0,0,1-1.93.63l.12-.5c-.51.18-.55.48-1.18.51s-.78-.25-1-.26-.44.22-.74.25a20,20,0,0,1-3-.06c-.17-.35-.31-1.36.2-1.44,2,0,4,0,6,0h1.12c.91,0,1.83,0,2.74,0l.07.39c.49-.56,1.08-.36,1.74-.38,0,0-.08.41-.12.5,1.13-.74,1.07-.4,2.29-.42,2.64-.05,5.28-.07,7.88-.08a22.07,22.07,0,0,0,2.44,0c-.21.35.31,1.67-.44,1.5-.46-.11.4-.62-.12-.62-.56,1.06-1.37.49-2.24.51-1.9,0-4,.12-5.75.11-1.22,0-3,.14-4.13,0-.19,0-.31,0-.43-.2S139.78,206.93,139.87,206.72Zm-3.87.37c.21-.09.42-.27.37-.49C136.17,206.69,136,206.87,136,207.09Zm12.23.25c.36,0,.71-.22.63-.62C148.83,206.68,148.11,207.08,148.23,207.34ZM137.87,207c-.13-.13-.5.25-.37.37S138,207.1,137.87,207Z"></path><path class="cls-1" d="M92.48,237.65c.17.2.77.23.84.73s-.4,1-.5,1.38l-1.5-.32.75-1.12c-.54.08-.67.81-1.24.93-.28.06-.71-.16-1-.19A11.17,11.17,0,0,1,91.9,237C92.26,236.88,92.37,237.54,92.48,237.65Z"></path></g></g></svg>